<svg xmlns="http://www.w3.org/2000/svg" viewBox="0 0 513.54 502.34"><defs><style>.cls-1{font-size:200px;fill:#fff;font-family:Roboto-Regular, Roboto;}</style></defs><g id="Layer_2" data-name="Layer 2"><g id="Notification"><circle id="Bell" cx="372.45" cy="131.06" r="131.06"/><text class="cls-1" transform="translate(268.06 198.4)">21</text></g><g id="Bell-2" data-name="Bell"><path d="M213.33,502.34a80.1,80.1,0,0,1-80-80,16,16,0,0,1,32,0,48,48,0,1,0,96,0,16,16,0,0,1,32,0A80.09,80.09,0,0,1,213.33,502.34Z"/><path d="M389.33,438.34h-352a37.35,37.35,0,0,1-24.28-65.71,15.23,15.23,0,0,1,1.71-1.28A143.36,143.36,0,0,0,64,263.19V203.67A148.39,148.39,0,0,1,178.5,58.6a16,16,0,0,1,7.38,31.15A116.49,116.49,0,0,0,96,203.67v59.52A175.45,175.45,0,0,1,34.07,397c-.32.26-.6.49-.94.73A5.22,5.22,0,0,0,32,401a5.39,5.39,0,0,0,5.33,5.33h352a5.4,5.4,0,0,0,5.34-5.33,5.12,5.12,0,0,0-1.15-3.31c-.32-.24-.63-.47-.92-.73a173.88,173.88,0,0,1-44.82-58.47,16,16,0,1,1,28.9-13.68A142.64,142.64,0,0,0,412,371.42a20.07,20.07,0,0,1,1.62,1.21,37.32,37.32,0,0,1-24.24,65.71Z"/></g></g></svg>