<?xml version="1.0" encoding="utf-8"?>
<!-- Generator: Adobe Illustrator 24.1.2, SVG Export Plug-In . SVG Version: 6.00 Build 0)  -->
<svg version="1.1" id="Capa_1" xmlns="http://www.w3.org/2000/svg" xmlns:xlink="http://www.w3.org/1999/xlink" x="0px" y="0px"
	 viewBox="0 0 476.9 476.9" style="enable-background:new 0 0 476.9 476.9;" xml:space="preserve">
<g>
	<g>
		<path d="M413.2,162.5l-6.7-6.5L249.6,4.5c-6.2-6-16-6-22.2,0L70.5,156l-8.3,8c-6.7,7.5-7.6,12.1-7.8,13.7v283.3
			c0,8.8,7.2,16,16,16h336c8.8,0,16-7.2,16-16V177.1C422.3,175.3,421,170.7,413.2,162.5z M406.5,460.9h-336V178.2L238.5,16
			l168,162.1V460.9z"/>
	</g>
</g>
<path d="M54.5,177.6v0.6C54.5,178.2,54.4,178,54.5,177.6z"/>
<path d="M70.5,156l-8.3,8C64.3,161.6,67,158.9,70.5,156z"/>
<path d="M413.2,162.5l-6.7-6.5C409.1,158.4,411.3,160.5,413.2,162.5z"/>
<path d="M422.5,177.9v-0.9C422.5,177.6,422.5,177.9,422.5,177.9z"/>
</svg>
