<svg id="Layer_1" data-name="Layer 1" xmlns="http://www.w3.org/2000/svg" viewBox="0 0 398.92 481.52"><defs><style>.cls-1{fill:#ffb400;}</style></defs><g id="Layer_2" data-name="Layer 2"><g id="Layer_1-2" data-name="Layer 1-2"><g id="Layer_2-2" data-name="Layer 2-2"><g id="Layer_1-2-2" data-name="Layer 1-2-2"><path class="cls-1" d="M119.43,237.23h36.42l-2.12,7.89a1.27,1.27,0,0,1-1.55.88Z" transform="translate(0 -0.03)"/><path class="cls-1" d="M222.29,167.93h-8a5.2,5.2,0,1,0,0,10.4h8a5.2,5.2,0,0,0,0-10.4Zm8.27,17.33h-8a5.2,5.2,0,1,0-.46,10.39h8.46a5.2,5.2,0,0,0,0-10.39Zm4.49,17.32h-8A5.21,5.21,0,1,0,227,213h8a5.2,5.2,0,1,0,.52-10.39H235Zm3.4,17.32h-8a5.2,5.2,0,1,0,0,10.4h8a5.2,5.2,0,0,0,0-10.4Zm18-42.41v-4.34H250.9a18.08,18.08,0,0,1-11.77-4.35,21,21,0,0,0-4.7,4.32h0a12.22,12.22,0,0,1-1.29,5.47,12.11,12.11,0,0,1,7.6,18.46,12.07,12.07,0,0,1,5.09,16.29,10.68,10.68,0,0,1-.91,1.48,12.18,12.18,0,0,1,4.75,5.6A20.67,20.67,0,0,0,274.51,205a21.33,21.33,0,0,0,.49-3.27,25.13,25.13,0,0,1-18.56-24.22Zm28.49,57-5.87-21.86a27.56,27.56,0,0,1-28.74,15,12.15,12.15,0,0,1-7.45,8.79l2.33,8.72a1.27,1.27,0,0,0,1.55.88l37.3-10a1.27,1.27,0,0,0,.87-1.55Zm0,0-5.87-21.86a27.56,27.56,0,0,1-28.74,15,12.15,12.15,0,0,1-7.45,8.79l2.33,8.72a1.27,1.27,0,0,0,1.55.88l37.3-10a1.27,1.27,0,0,0,.87-1.55Zm-28.49-57v-4.34H250.9a18.08,18.08,0,0,1-11.77-4.35,21,21,0,0,0-4.7,4.32h0a12.22,12.22,0,0,1-1.29,5.47,12.11,12.11,0,0,1,7.6,18.46,12.07,12.07,0,0,1,5.09,16.29,10.68,10.68,0,0,1-.91,1.48,12.18,12.18,0,0,1,4.75,5.6A20.67,20.67,0,0,0,274.51,205a21.33,21.33,0,0,0,.49-3.27,25.13,25.13,0,0,1-18.56-24.22Zm-18,42.41h-8a5.2,5.2,0,1,0,0,10.4h8a5.2,5.2,0,0,0,0-10.4Zm-3.4-17.32h-8A5.21,5.21,0,0,0,227,213h8a5.2,5.2,0,1,0,.52-10.39H235Zm-4.49-17.32h-8a5.2,5.2,0,0,0-.46,10.39h8.46a5.2,5.2,0,0,0,0-10.39Zm-8.27-17.33h-8a5.2,5.2,0,1,0,0,10.4h8a5.2,5.2,0,0,0,0-10.4Zm0,0h-8a5.2,5.2,0,1,0,0,10.4h8a5.2,5.2,0,0,0,0-10.4Zm8.27,17.33h-8a5.2,5.2,0,0,0-.46,10.39h8.46a5.2,5.2,0,0,0,0-10.39Zm4.49,17.32h-8A5.21,5.21,0,0,0,227,213h8a5.2,5.2,0,1,0,.52-10.39H235Zm3.4,17.32h-8a5.2,5.2,0,1,0,0,10.4h8a5.2,5.2,0,0,0,0-10.4Zm18-42.41v-4.34H250.9a18.08,18.08,0,0,1-11.77-4.35,21,21,0,0,0-4.7,4.32h0a12.22,12.22,0,0,1-1.29,5.47,12.11,12.11,0,0,1,7.6,18.46,12.07,12.07,0,0,1,5.09,16.29,10.68,10.68,0,0,1-.91,1.48,12.18,12.18,0,0,1,4.75,5.6A20.67,20.67,0,0,0,274.51,205a21.33,21.33,0,0,0,.49-3.27,25.13,25.13,0,0,1-18.56-24.22Zm28.49,57-5.87-21.86a27.56,27.56,0,0,1-28.74,15,12.15,12.15,0,0,1-7.45,8.79l2.33,8.72a1.27,1.27,0,0,0,1.55.88l37.3-10a1.27,1.27,0,0,0,.87-1.55Zm0,0-5.87-21.86a27.56,27.56,0,0,1-28.74,15,12.15,12.15,0,0,1-7.45,8.79l2.33,8.72a1.27,1.27,0,0,0,1.55.88l37.3-10a1.27,1.27,0,0,0,.87-1.55Zm-28.49-57v-4.34H250.9a18.08,18.08,0,0,1-11.77-4.35,21,21,0,0,0-4.7,4.32h0a12.22,12.22,0,0,1-1.29,5.47,12.11,12.11,0,0,1,7.6,18.46,12.07,12.07,0,0,1,5.09,16.29,10.68,10.68,0,0,1-.91,1.48,12.18,12.18,0,0,1,4.75,5.6A20.67,20.67,0,0,0,274.51,205a21.33,21.33,0,0,0,.49-3.27,25.13,25.13,0,0,1-18.56-24.22Zm-18,42.41h-8a5.2,5.2,0,1,0,0,10.4h8a5.2,5.2,0,0,0,0-10.4Zm-3.4-17.32h-8A5.21,5.21,0,0,0,227,213h8a5.2,5.2,0,1,0,.52-10.39H235Zm-4.49-17.32h-8a5.2,5.2,0,0,0-.46,10.39h8.46a5.2,5.2,0,0,0,0-10.39Zm-8.27-17.33h-8a5.2,5.2,0,1,0,0,10.4h8a5.2,5.2,0,0,0,0-10.4Zm0,0h-8a5.2,5.2,0,1,0,0,10.4h8a5.2,5.2,0,0,0,0-10.4Zm8.27,17.33h-8a5.2,5.2,0,0,0-.46,10.39h8.46a5.2,5.2,0,0,0,0-10.39Zm4.49,17.32h-8A5.21,5.21,0,0,0,227,213h8a5.2,5.2,0,1,0,.52-10.39H235Zm3.4,17.32h-8a5.2,5.2,0,1,0,0,10.4h8a5.2,5.2,0,0,0,0-10.4Zm18-42.41v-4.34H250.9a18.08,18.08,0,0,1-11.77-4.35,21,21,0,0,0-4.7,4.32h0a12.22,12.22,0,0,1-1.29,5.47,12.11,12.11,0,0,1,7.6,18.46,12.07,12.07,0,0,1,5.09,16.29,10.68,10.68,0,0,1-.91,1.48,12.18,12.18,0,0,1,4.75,5.6A20.67,20.67,0,0,0,274.51,205a21.33,21.33,0,0,0,.49-3.27,25.13,25.13,0,0,1-18.56-24.22Zm28.49,57-5.87-21.86a27.56,27.56,0,0,1-28.74,15,12.15,12.15,0,0,1-7.45,8.79l2.33,8.72a1.27,1.27,0,0,0,1.55.88l37.3-10a1.27,1.27,0,0,0,.87-1.55Zm0,0-5.87-21.86a27.56,27.56,0,0,1-28.74,15,12.15,12.15,0,0,1-7.45,8.79l2.33,8.72a1.27,1.27,0,0,0,1.55.88l37.3-10a1.27,1.27,0,0,0,.87-1.55Zm-28.49-57v-4.34H250.9a18.08,18.08,0,0,1-11.77-4.35,21,21,0,0,0-4.7,4.32h0a12.22,12.22,0,0,1-1.29,5.47,12.11,12.11,0,0,1,7.6,18.46,12.07,12.07,0,0,1,5.09,16.29,10.68,10.68,0,0,1-.91,1.48,12.18,12.18,0,0,1,4.75,5.6A20.67,20.67,0,0,0,274.51,205a21.33,21.33,0,0,0,.49-3.27,25.13,25.13,0,0,1-18.56-24.22Zm-18,42.41h-8a5.2,5.2,0,1,0,0,10.4h8a5.2,5.2,0,0,0,0-10.4Zm-3.4-17.32h-8A5.21,5.21,0,0,0,227,213h8a5.2,5.2,0,1,0,.52-10.39H235Zm-4.49-17.32h-8a5.2,5.2,0,0,0-.46,10.39h8.46a5.2,5.2,0,0,0,0-10.39Zm-8.27-17.33h-8a5.2,5.2,0,1,0,0,10.4h8a5.2,5.2,0,0,0,0-10.4ZM154,309.38a3.05,3.05,0,0,0-1.65-.39,4.51,4.51,0,0,0-2.44,1,15.06,15.06,0,0,0-2.74,2.61,25.71,25.71,0,0,0-2.64,3.82,32.91,32.91,0,0,0-2.26,4.62,31.15,31.15,0,0,0-1.56,5,21.15,21.15,0,0,0-.55,4.82,8.12,8.12,0,0,0,.71,3.57,2.26,2.26,0,0,0,2.17,1.29,5,5,0,0,0,3-1,13.87,13.87,0,0,0,2.84-2.73,26.09,26.09,0,0,0,2.58-3.93,38,38,0,0,0,2.12-4.64A25.61,25.61,0,0,0,155.5,314C155.5,311.56,155,310,154,309.38Zm34.46,0a3,3,0,0,0-1.66-.39,4.51,4.51,0,0,0-2.44,1,16.2,16.2,0,0,0-2.75,2.61,27,27,0,0,0-2.64,3.82,32.86,32.86,0,0,0-2.25,4.62,29.26,29.26,0,0,0-1.56,5,21.15,21.15,0,0,0-.55,4.82,7.85,7.85,0,0,0,.72,3.57,2.25,2.25,0,0,0,2.16,1.29,5,5,0,0,0,3-1,14.36,14.36,0,0,0,2.83-2.73,25.6,25.6,0,0,0,2.58-3.93,38,38,0,0,0,2.12-4.64,25.31,25.31,0,0,0,1.93-9.36q0-3.75-1.47-4.68Zm33.81-141.45h-8a5.2,5.2,0,1,0,0,10.4h8a5.2,5.2,0,0,0,0-10.4Zm8.27,17.33h-8a5.2,5.2,0,1,0-.46,10.39h8.46a5.2,5.2,0,0,0,0-10.39ZM235,202.58h-8A5.21,5.21,0,0,0,227,213h8a5.2,5.2,0,1,0,.52-10.39H235Zm3.4,17.32h-8a5.2,5.2,0,1,0,0,10.4h8a5.2,5.2,0,0,0,0-10.4Zm18-42.41v-4.34h-5.55a18,18,0,0,1-11.77-4.35,21,21,0,0,0-4.7,4.32h0a12.22,12.22,0,0,1-1.29,5.47,12.11,12.11,0,0,1,7.6,18.46,12.07,12.07,0,0,1,5.09,16.29,10.68,10.68,0,0,1-.91,1.48,12.18,12.18,0,0,1,4.75,5.6A20.69,20.69,0,0,0,275,201.71a25.13,25.13,0,0,1-18.56-24.22Zm28.49,57L279,212.63a27.56,27.56,0,0,1-28.74,15,12.15,12.15,0,0,1-7.45,8.79l2.33,8.72a1.27,1.27,0,0,0,1.55.88L284,236a1.26,1.26,0,0,0,.89-1.54h0Zm0,0L279,212.63a27.56,27.56,0,0,1-28.74,15,12.15,12.15,0,0,1-7.45,8.79l2.33,8.72a1.27,1.27,0,0,0,1.55.88L284,236a1.26,1.26,0,0,0,.89-1.54h0Zm-28.49-57v-4.34h-5.55a18,18,0,0,1-11.77-4.35,21,21,0,0,0-4.7,4.32h0a12.22,12.22,0,0,1-1.29,5.47,12.11,12.11,0,0,1,7.6,18.46,12.07,12.07,0,0,1,5.09,16.29,10.68,10.68,0,0,1-.91,1.48,12.18,12.18,0,0,1,4.75,5.6A20.69,20.69,0,0,0,275,201.71a25.13,25.13,0,0,1-18.56-24.22Zm-18,42.41h-8a5.2,5.2,0,1,0,0,10.4h8a5.2,5.2,0,0,0,0-10.4ZM235,202.58h-8A5.21,5.21,0,0,0,227,213h8a5.2,5.2,0,1,0,.52-10.39H235Zm-4.49-17.32h-8a5.2,5.2,0,1,0-.46,10.39h8.46a5.2,5.2,0,0,0,0-10.39Zm-8.27-17.33h-8a5.2,5.2,0,1,0,0,10.4h8a5.2,5.2,0,0,0,0-10.4ZM188.48,309.38a3,3,0,0,0-1.66-.39,4.51,4.51,0,0,0-2.44,1,16.2,16.2,0,0,0-2.75,2.61,27,27,0,0,0-2.64,3.82,32.86,32.86,0,0,0-2.25,4.62,29.26,29.26,0,0,0-1.56,5,21.15,21.15,0,0,0-.55,4.82,7.85,7.85,0,0,0,.72,3.57,2.25,2.25,0,0,0,2.16,1.29,5,5,0,0,0,3-1,14.36,14.36,0,0,0,2.83-2.73,25.6,25.6,0,0,0,2.58-3.93,38,38,0,0,0,2.12-4.64,25.31,25.31,0,0,0,1.93-9.36C189.94,311.56,189.45,310,188.48,309.38Zm-34.46,0a3.05,3.05,0,0,0-1.65-.39,4.51,4.51,0,0,0-2.44,1,15.06,15.06,0,0,0-2.74,2.61,25.71,25.71,0,0,0-2.64,3.82,32.91,32.91,0,0,0-2.26,4.62,31.15,31.15,0,0,0-1.56,5,21.15,21.15,0,0,0-.55,4.82,8.12,8.12,0,0,0,.71,3.57,2.26,2.26,0,0,0,2.17,1.29,5,5,0,0,0,3-1A13.82,13.82,0,0,0,148.9,332a26.09,26.09,0,0,0,2.58-3.93,38,38,0,0,0,2.12-4.64,25.38,25.38,0,0,0,1.9-9.42c0-2.44-.5-4-1.5-4.62Zm0,0a3.05,3.05,0,0,0-1.65-.39,4.51,4.51,0,0,0-2.44,1,15.06,15.06,0,0,0-2.74,2.61,25.71,25.71,0,0,0-2.64,3.82,32.91,32.91,0,0,0-2.26,4.62,31.15,31.15,0,0,0-1.56,5,21.15,21.15,0,0,0-.55,4.82,8.12,8.12,0,0,0,.71,3.57,2.26,2.26,0,0,0,2.17,1.29,5,5,0,0,0,3-1A13.82,13.82,0,0,0,148.9,332a26.09,26.09,0,0,0,2.58-3.93,38,38,0,0,0,2.12-4.64,25.38,25.38,0,0,0,1.9-9.42c0-2.44-.5-4-1.5-4.62Zm34.46,0a3,3,0,0,0-1.66-.39,4.51,4.51,0,0,0-2.44,1,16.2,16.2,0,0,0-2.75,2.61,27,27,0,0,0-2.64,3.82,32.86,32.86,0,0,0-2.25,4.62,29.26,29.26,0,0,0-1.56,5,21.15,21.15,0,0,0-.55,4.82,7.85,7.85,0,0,0,.72,3.57,2.25,2.25,0,0,0,2.16,1.29,5,5,0,0,0,3-1,14.36,14.36,0,0,0,2.83-2.73,25.6,25.6,0,0,0,2.58-3.93,38,38,0,0,0,2.12-4.64,25.31,25.31,0,0,0,1.93-9.36c0-2.5-.52-4.06-1.49-4.68Zm33.16,9.42a9.79,9.79,0,0,0-2.38-.55A22,22,0,0,0,215,319c-1.83.48-3.09.8-3.77,1a32.1,32.1,0,0,0-2.62,10.77,4.46,4.46,0,0,0,1.09,3.41,4.23,4.23,0,0,0,3.2,1.2,11,11,0,0,0,4.19-.89,14.61,14.61,0,0,0,4-2.38q4.13-3.45,4.25-7.85a5.22,5.22,0,0,0-3.7-5.46Zm.65-150.87h-8a5.2,5.2,0,1,0,0,10.4h8a5.2,5.2,0,0,0,0-10.4Zm8.27,17.33h-8a5.2,5.2,0,1,0-.46,10.39h8.46a5.2,5.2,0,0,0,0-10.39Zm4.49,17.32h-8A5.21,5.21,0,0,0,227,213h8a5.2,5.2,0,1,0,.52-10.39H235Zm3.4,17.32h-8a5.2,5.2,0,1,0,0,10.4h8a5.2,5.2,0,0,0,0-10.4Zm21.91,89.94a3.54,3.54,0,0,0-1.75-.36,6,6,0,0,0-2.73.85,13.76,13.76,0,0,0-3,2.32,19.85,19.85,0,0,0-2.7,3.49A27.79,27.79,0,0,0,246,330.52c0,2.61.85,3.92,2.53,3.92,1.28,0,2.87-1.09,4.73-3.27a45.13,45.13,0,0,0,7.3-12.95,48.56,48.56,0,0,0,1.7-5.11,3.87,3.87,0,0,0-1.9-3.27Zm-3.92-132.35v-4.34h-5.55a18,18,0,0,1-11.77-4.35,21,21,0,0,0-4.7,4.32h0a12.22,12.22,0,0,1-1.29,5.47,12.11,12.11,0,0,1,7.6,18.46,12.07,12.07,0,0,1,5.09,16.29,10.68,10.68,0,0,1-.91,1.48,12.18,12.18,0,0,1,4.75,5.6A20.67,20.67,0,0,0,274.5,205h0a20.26,20.26,0,0,0,.5-3.29,25.13,25.13,0,0,1-18.56-24.22Zm28.49,57-5.87-21.86a27.56,27.56,0,0,1-28.74,15,12.15,12.15,0,0,1-7.45,8.79l2.33,8.72a1.27,1.27,0,0,0,1.55.88l37.3-10a1.27,1.27,0,0,0,.88-1.55Zm0,0-5.87-21.86a27.56,27.56,0,0,1-28.74,15,12.15,12.15,0,0,1-7.45,8.79l2.33,8.72a1.27,1.27,0,0,0,1.55.88l37.3-10a1.27,1.27,0,0,0,.88-1.55Zm-42.25-44a12,12,0,0,1-2,6.61,12.07,12.07,0,0,1,5.09,16.29,10.68,10.68,0,0,1-.91,1.48,12.18,12.18,0,0,1,4.75,5.6,20.68,20.68,0,0,0,24.88-15.37,21.5,21.5,0,0,0,.51-3.39,25.13,25.13,0,0,1-18.56-24.22v-4.34h-5.55a18,18,0,0,1-11.77-4.35,21,21,0,0,0-4.7,4.32h0a12.22,12.22,0,0,1-1.29,5.47,12.16,12.16,0,0,1,9.55,11.86Zm-4.23,29.45h-8a5.2,5.2,0,1,0,0,10.4h8a5.2,5.2,0,0,0,0-10.4Zm-3.4-6.93a5.2,5.2,0,1,0,.52-10.39h-8.52a5.2,5.2,0,1,0-.69,10.38h8.69Zm-4.49-17.32a5.2,5.2,0,0,0,0-10.39h-8a5.2,5.2,0,1,0-.46,10.39Zm-3.07-22.52a5.22,5.22,0,0,0-5.2-5.2h-8a5.2,5.2,0,1,0,0,10.4h8a5.22,5.22,0,0,0,5.2-5.24h0Zm32.87,136.71a3.54,3.54,0,0,0-1.75-.36,6,6,0,0,0-2.73.85,13.76,13.76,0,0,0-3,2.32,19.85,19.85,0,0,0-2.7,3.49A27.77,27.77,0,0,0,246,330.52c0,2.61.85,3.92,2.53,3.92,1.28,0,2.87-1.09,4.73-3.27a45.13,45.13,0,0,0,7.3-12.95,48.56,48.56,0,0,0,1.7-5.11,3.87,3.87,0,0,0-1.9-3.27Zm-38.72,9a9.79,9.79,0,0,0-2.38-.55A22.76,22.76,0,0,0,215,319c-1.83.48-3.09.8-3.77,1a32.1,32.1,0,0,0-2.62,10.77,4.46,4.46,0,0,0,1.09,3.41,4.23,4.23,0,0,0,3.2,1.2,11,11,0,0,0,4.19-.89,14.61,14.61,0,0,0,4-2.38q4.13-3.45,4.25-7.85a5.22,5.22,0,0,0-3.7-5.46Zm-33.16-9.42a3,3,0,0,0-1.66-.39,4.51,4.51,0,0,0-2.44,1,16.2,16.2,0,0,0-2.75,2.61A28.46,28.46,0,0,0,179,316.5a32.86,32.86,0,0,0-2.25,4.62,29.26,29.26,0,0,0-1.56,5,21.15,21.15,0,0,0-.55,4.82,7.85,7.85,0,0,0,.72,3.57,2.25,2.25,0,0,0,2.16,1.29,5,5,0,0,0,3-1,14.36,14.36,0,0,0,2.83-2.73,25.6,25.6,0,0,0,2.58-3.93A39.28,39.28,0,0,0,188,323.5a25.31,25.31,0,0,0,1.93-9.36c0-2.58-.52-4.14-1.49-4.76Zm-34.46,0a3.05,3.05,0,0,0-1.65-.39,4.51,4.51,0,0,0-2.44,1,15.06,15.06,0,0,0-2.74,2.61,25.71,25.71,0,0,0-2.64,3.82,32.91,32.91,0,0,0-2.26,4.62,31.15,31.15,0,0,0-1.56,5,21.15,21.15,0,0,0-.55,4.82,8.12,8.12,0,0,0,.71,3.57,2.26,2.26,0,0,0,2.17,1.29,5,5,0,0,0,3-1,13.87,13.87,0,0,0,2.84-2.73,26.09,26.09,0,0,0,2.58-3.93,38,38,0,0,0,2.12-4.64,25.4,25.4,0,0,0,1.9-9.5c0-2.44-.5-4-1.5-4.62Zm186.48-251c-77.89-77.91-204.18-77.91-282.07,0s-77.92,204.18,0,282.09l141,141,141-141c78-77.94,78-204.24.07-282.12ZM208.61,69.52l9.87-12.26a3.46,3.46,0,1,1,5.39,4.34L214,73.86a3.42,3.42,0,0,1-2.69,1.29,3.52,3.52,0,0,1-2.18-.76,3.45,3.45,0,0,1-.54-4.85h0Zm-33-12.79a3.49,3.49,0,0,1,4.88.53l9.86,12.26a3.46,3.46,0,0,1-.52,4.87h0a3.52,3.52,0,0,1-2.18.76A3.42,3.42,0,0,1,185,73.86L175.1,61.6a3.48,3.48,0,0,1,.52-4.87Zm-53,254.68a9.34,9.34,0,0,1,2.68.33,6.84,6.84,0,0,1,1.86.91,3.67,3.67,0,0,1,1.87,3.14,1.66,1.66,0,0,1-1.42,1.87,1.48,1.48,0,0,1-.42,0c-.64,0-1.3-.06-2-.12s-1.5-.09-2.44-.11a61.88,61.88,0,0,0-6.67.26,64,64,0,0,1-6.43,13.87c-2.61,4.06-5.26,6.57-8,7.53a3.23,3.23,0,0,1-1.19.23,2.53,2.53,0,0,1-1.09-.22,2.26,2.26,0,0,1-.82-.54,1.78,1.78,0,0,1-.68-1.37,1.23,1.23,0,0,1,.49-1.11q4.62-3.36,9.54-17l-.71.19-.63.2a1.57,1.57,0,0,1-.61.1,1.66,1.66,0,0,1-.75-.21,3.61,3.61,0,0,1-.72-.51,1.81,1.81,0,0,1-.73-1.28,1.59,1.59,0,0,1,.57-1.16,8.34,8.34,0,0,1,1.43-1,21.37,21.37,0,0,1,4-1.7l1.78-5.5c2.07-6.43,4-10.89,6-13.38-1.8-.15-3.12-.22-4-.22-2.57,0-4.42.35-5.56,1.08a6.69,6.69,0,0,0-2.34,2.33,5.29,5.29,0,0,0-.69,1.75c-.07.62-.26,1-.6,1.17a2.61,2.61,0,0,1-2.65-.27,3.92,3.92,0,0,1-1.24-1.29,5.41,5.41,0,0,1-.82-3.61,7.07,7.07,0,0,1,1.32-3.47,9.51,9.51,0,0,1,2.61-2.37,11,11,0,0,1,5.88-1.7,54.27,54.27,0,0,1,5.84.31c1.85.2,3.68.44,5.52.7q4.62.74,9.29,1a13.11,13.11,0,0,0,3-.23,5.14,5.14,0,0,0,1.64-.68,9.2,9.2,0,0,1,1-.61,2.18,2.18,0,0,1,.91-.15c.65,0,.94.5.84,1.49a6.18,6.18,0,0,1-.72,2.55,5.05,5.05,0,0,1-1.53,1.75,8.07,8.07,0,0,1-4.9,1.41c-2,0-4.4-.13-7.24-.39a33.48,33.48,0,0,0-2.06,5.76l-3,10.79a33.22,33.22,0,0,1,4.66-.52Zm39.44,10.11a27,27,0,0,1-5,10.27,20.24,20.24,0,0,1-8.58,6.64,12.84,12.84,0,0,1-4.89,1,13.15,13.15,0,0,1-4.27-.62,8.2,8.2,0,0,1-3.26-1.93,9.07,9.07,0,0,1-2.17-3.32,13.58,13.58,0,0,1-.81-4.76,21.32,21.32,0,0,1,.67-5.56,27.52,27.52,0,0,1,5.1-10.34,24.41,24.41,0,0,1,4-4,16.13,16.13,0,0,1,9.92-3.66q6.75,0,9.12,5.92,1.69,4.29.19,10.36Zm-1.65-74.61a8.19,8.19,0,0,1-7.91,6.07c-2,0-.86,0-39.41-10.28a8.08,8.08,0,0,1-5.89-6.17,15.3,15.3,0,0,1-10.59-12.4H84.68a3.47,3.47,0,0,1-.41-6.93H99.93a3.47,3.47,0,0,1,3.46,3.46v1.26a8.37,8.37,0,0,0,8.36,8.38H168.5a5.2,5.2,0,0,0,0-10.4,3.47,3.47,0,0,1,0-6.93h3.42a5.2,5.2,0,1,0,.52-10.39h-.52a3.47,3.47,0,1,1-.41-6.93h4.89a5.2,5.2,0,1,0,.52-10.39h-.52a3.47,3.47,0,0,1,0-6.93h8.28a5.2,5.2,0,0,0,0-10.4H126.06a3.47,3.47,0,0,1,0-6.93h.45l1.67-6.19A23.37,23.37,0,0,0,121,157.2l-.13.08a23.36,23.36,0,0,0-12.34,20.37,3.46,3.46,0,0,1-3.47,3.43H84.68a3.47,3.47,0,0,1-.41-6.93h17.52a30.23,30.23,0,0,1,28.78-26.52c4-8.4,11.56-14.26,16.79-17.5.58-2.17,1.27-4.61,1.89-6.74a3.46,3.46,0,1,1,6.65,1.94c-.91,3.17-1.6,5.65-2.22,7.93a3.46,3.46,0,0,1-1.58,2.1c-4.75,2.79-12.8,8.53-15.92,16.8l-.12.28c-.19.55-.38,1.11-.52,1.68L133.69,161h3.07A27.46,27.46,0,0,1,160,161h15.88c.05-.63.1-1.26.1-1.91,0-7.3-3.1-14.28-5.68-18.85a3.53,3.53,0,0,1-.34-2.62c2-7.36,5.48-22,6.52-29.27a3.45,3.45,0,0,1,3.15-3,4.28,4.28,0,0,0,.79-8.4L165,92.84a4.28,4.28,0,0,0-3.52,7.66,3.46,3.46,0,0,1,1.26,4.15c-.79,2-1.73,4.59-2.8,7.82a3.47,3.47,0,0,1-6.58-2.18c.75-2.27,1.45-4.27,2.08-6a11.2,11.2,0,0,1,8.46-18.56,10.9,10.9,0,0,1,2.9.39l15.45,4.14a11.2,11.2,0,0,1,4.19,19.5,10.6,10.6,0,0,1-3.44,1.92c-1.27,7.52-4,19.19-5.94,26.37,2.84,5.28,5.88,12.87,5.88,21,0,.64,0,1.28-.06,1.91h1.85a12.13,12.13,0,0,1,2.56,24,12.36,12.36,0,0,1,1.3,5.47,12.14,12.14,0,0,1-6.46,10.72,12.11,12.11,0,0,1-3.52,16.76l-.19.12a12.14,12.14,0,0,1-9.87,19.18H163Zm36.1,74.61a27,27,0,0,1-5,10.27,20.42,20.42,0,0,1-8.57,6.64,13.6,13.6,0,0,1-9.18.38,8.16,8.16,0,0,1-3.25-1.93,9.07,9.07,0,0,1-2.17-3.32,13.82,13.82,0,0,1-.82-4.76,21.77,21.77,0,0,1,.68-5.56,25.65,25.65,0,0,1,2-5.43,27.32,27.32,0,0,1,3.11-4.91,23.66,23.66,0,0,1,4-4,16.1,16.1,0,0,1,9.91-3.66c4.49,0,7.54,2,9.12,5.92q1.66,4.29.19,10.36Zm2.94-250A3.48,3.48,0,0,1,196,68.08V53.92a3.47,3.47,0,0,1,6.93,0V68.08a3.48,3.48,0,0,1-3.47,3.46ZM226.9,316.69a8.82,8.82,0,0,1,4,3.29,8,8,0,0,1,1.26,4.55,11.52,11.52,0,0,1-1,4.48,13.7,13.7,0,0,1-2.42,3.69,17,17,0,0,1-3.52,2.92,22.48,22.48,0,0,1-4.24,2.07,26,26,0,0,1-9.24,1.7q-6.57,0-8.5-5.16a12.16,12.16,0,0,1-.62-4.44,41.27,41.27,0,0,1,.73-6.26,57.74,57.74,0,0,1,2.06-7.85A60.43,60.43,0,0,1,214,298.5a2.6,2.6,0,0,1,2-1.27,5,5,0,0,1,2,.45,7.51,7.51,0,0,1,1.75,1.08c1.27,1.05,1.69,1.9,1.25,2.55q-4.6,7.41-7.56,13.35a24.39,24.39,0,0,0,13.1-4.66q6.19-4.54,6.19-11.06c0-2.94-1.46-4.82-4.39-5.62a12.25,12.25,0,0,0-3.19-.36,21.31,21.31,0,0,0-3.82.37,27.72,27.72,0,0,0-3.81,1,27.34,27.34,0,0,0-6.64,3.54,2.81,2.81,0,0,1-1.57.62,3.75,3.75,0,0,1-1.58-.38,6,6,0,0,1-1.5-.93q-2.55-2.16.73-4.48,4.72-3.33,14-4.32c1.15-.11,2.69-.16,4.62-.16a19.92,19.92,0,0,1,5.93.94,13.8,13.8,0,0,1,4.85,2.56,10.65,10.65,0,0,1,3.37,8.37,15,15,0,0,1-3.83,9.55,25.76,25.76,0,0,1-9,7.07Zm45.7-8.51q-8.22,16.83-8.44,20.94a8.65,8.65,0,0,0-.06,1.25c0,2,.7,3,2.13,3a5.66,5.66,0,0,0,2.43-.46,4.18,4.18,0,0,1,1.28-.46c.47,0,.69.24.69.72,0,1.87-1,3.49-2.94,4.84a6.86,6.86,0,0,1-6.34,1,5.25,5.25,0,0,1-3.14-3.24,6.14,6.14,0,0,1-.49-2.32,21.7,21.7,0,0,1,.32-3.6c-2,4.14-4.55,7-7.56,8.57a8.18,8.18,0,0,1-3.82.91,6.94,6.94,0,0,1-3.51-.83,7.43,7.43,0,0,1-2.55-2.31,12.3,12.3,0,0,1-1.93-7.72,24.24,24.24,0,0,1,3.44-11.41,26.9,26.9,0,0,1,7.52-8.54c3-2.24,5.87-3.37,8.52-3.37a7.37,7.37,0,0,1,6.38,3.63c1.5-2.42,2.82-3.63,4-3.63a5,5,0,0,1,2.81.68c1.21,1,1.66,1.72,1.28,2.37Zm30.25,3.1a7,7,0,0,1-.75,1.75,3.06,3.06,0,0,1-2.61,1.83,1.17,1.17,0,0,1-.78-.3L298,314a3.2,3.2,0,0,0-2.07-.95,4,4,0,0,0-2.43,1.31,24.9,24.9,0,0,0-2.95,3.37A62.75,62.75,0,0,0,282.11,333l-1.44,3.8a10.68,10.68,0,0,1-1,2,1.43,1.43,0,0,1-1.25.6,4.63,4.63,0,0,1-1.68-.31,5.64,5.64,0,0,1-1.49-.8,4.16,4.16,0,0,1-1-1.09,2.08,2.08,0,0,1-.43-1,2.49,2.49,0,0,1,.18-1.08c.14-.42.33-.94.57-1.55q6.68-16.41,6.68-22a2.76,2.76,0,0,0-1.09-2.23l-.64-.46a1,1,0,0,1-.32-.8,1.67,1.67,0,0,1,.4-1.09,4,4,0,0,1,1.12-.92,6.14,6.14,0,0,1,2.9-.75,6.75,6.75,0,0,1,2.32.32,4.71,4.71,0,0,1,1.43.89,3.57,3.57,0,0,1,1.26,2.48,11.83,11.83,0,0,1-.3,2.65c-.21.9-.45,1.78-.74,2.64s-.57,1.68-.86,2.45a17.14,17.14,0,0,0-.54,1.72,5,5,0,0,0-.21,1.44,2.79,2.79,0,0,0,1-1.34l1.27-2.42q4.25-7.66,8.31-10.15a5.69,5.69,0,0,1,2.83-.68,3.37,3.37,0,0,1,2.67,1.16,4,4,0,0,1,1.06,2.57,8.54,8.54,0,0,1-.25,2.25Zm11.38-87.17H302.31a15.22,15.22,0,0,1-10.61,12.42,8.17,8.17,0,0,1-5.87,6.15l-37.29,10a8.38,8.38,0,0,1-2.12.27,8.19,8.19,0,0,1-7.91-6.06l-2.59-9.68h-5.49A12.14,12.14,0,0,1,220.57,218a12.07,12.07,0,0,1-3.87-16.62c.05-.09.11-.17.16-.25A12.1,12.1,0,0,1,211.7,185a12.13,12.13,0,0,1,2.55-24h1.85c0-.63-.08-1.27-.08-1.91,0-8.14,3.06-15.73,5.9-21-.55-2-1.13-4.36-1.72-6.74a3.47,3.47,0,0,1,6.74-1.63c.69,2.86,1.42,5.67,2,7.91a3.48,3.48,0,0,1-.33,2.62c-2.58,4.57-5.68,11.55-5.68,18.85A12.49,12.49,0,0,0,223,161a12.1,12.1,0,0,1,8.82,4.69,31.39,31.39,0,0,1,2.93-2.35,18,18,0,0,1-2.05-8.35v-3a4.46,4.46,0,0,1,4.44-4.45H260.4c-3.84-5.89-9.85-10.06-13.57-12.23a3.5,3.5,0,0,1-1.58-2.11c-1-3.88-2.61-9.31-4.21-14.52-1.91-6.13-3.56-11-4.79-14.08a3.43,3.43,0,0,1,1.25-4.15,4.28,4.28,0,0,0-3.5-7.65L218.51,97a4.28,4.28,0,0,0,.79,8.4,3.45,3.45,0,0,1,3.15,3c.3,2.11.82,5,1.55,8.46a3.46,3.46,0,1,1-6.72,1.66h0a2.21,2.21,0,0,1-.05-.25c-.53-2.48-.93-4.66-1.25-6.51a11.2,11.2,0,0,1,.74-21.41h0l15.45-4.14a11.2,11.2,0,0,1,13.73,7.88h0a11.26,11.26,0,0,1-2.38,10.25c1.44,3.89,3,8.71,4.11,12.36,1.47,4.72,2.9,9.62,3.93,13.45,7.81,4.84,13.66,11,16.75,17.49a30.21,30.21,0,0,1,15.42,5,3.46,3.46,0,1,1-3.82,5.78h0a23.27,23.27,0,0,0-12.85-3.84h-27.4v.5a11.21,11.21,0,0,0,11.21,11.21h9a3.48,3.48,0,0,1,3.45,3.46v7.8a18.19,18.19,0,0,0,15.59,18h0a18.26,18.26,0,0,0,2.56.18h7a3.47,3.47,0,0,1,0,6.93h-4.94l7.2,26.91a8.34,8.34,0,0,0,4.79-7.57v-1.26a3.47,3.47,0,0,1,3.35-3.57h15.36a3.47,3.47,0,0,1,.37,6.93h-.37Zm0-43H297.37v2a3.47,3.47,0,0,1-6.93.38h0a2.41,2.41,0,0,1,0-.38c-.25-3.52,1-9-2.63-16A3.49,3.49,0,1,1,294,163.9a30.13,30.13,0,0,1,3.19,10.26H314.3a3.47,3.47,0,0,1,.37,6.93h-.37ZM279,212.64a27.56,27.56,0,0,1-28.74,15,12.15,12.15,0,0,1-7.45,8.79l2.33,8.72a1.27,1.27,0,0,0,1.55.88L284,236a1.27,1.27,0,0,0,.88-1.54Zm-36.38-22.16a12,12,0,0,1-2,6.61,12.07,12.07,0,0,1,5.09,16.29,10.68,10.68,0,0,1-.91,1.48,12.18,12.18,0,0,1,4.75,5.6,20.68,20.68,0,0,0,24.9-15.34h0a21.75,21.75,0,0,0,.51-3.41,25.13,25.13,0,0,1-18.56-24.22v-4.34h-5.55a18,18,0,0,1-11.77-4.35,21,21,0,0,0-4.7,4.32h0a12.22,12.22,0,0,1-1.29,5.47,12.16,12.16,0,0,1,9.55,11.86ZM260.3,309.87a3.54,3.54,0,0,0-1.75-.36,6,6,0,0,0-2.73.85,13.76,13.76,0,0,0-3,2.32,19.85,19.85,0,0,0-2.7,3.49A27.77,27.77,0,0,0,246,330.52c0,2.61.85,3.92,2.53,3.92,1.28,0,2.87-1.09,4.73-3.27a45.13,45.13,0,0,0,7.3-12.95,48.56,48.56,0,0,0,1.7-5.11,3.87,3.87,0,0,0-1.9-3.27Zm-21.89-90h-8a5.2,5.2,0,1,0,0,10.4h8a5.2,5.2,0,0,0,0-10.4Zm-3.4-6.93a5.2,5.2,0,1,0,.52-10.39H227A5.23,5.23,0,0,0,227,213h0Zm-4.49-17.32a5.2,5.2,0,0,0,0-10.39h-8a5.2,5.2,0,1,0-.46,10.39h8.46Zm-3.07-22.52a5.22,5.22,0,0,0-5.2-5.2h-8a5.2,5.2,0,1,0,0,10.4h8A5.22,5.22,0,0,0,227.45,173.1Zm-5.81,145.7a9.79,9.79,0,0,0-2.38-.55A22,22,0,0,0,215,319c-1.83.48-3.09.8-3.77,1a32.1,32.1,0,0,0-2.62,10.77,4.46,4.46,0,0,0,1.09,3.41,4.23,4.23,0,0,0,3.2,1.2,11,11,0,0,0,4.19-.89,14.61,14.61,0,0,0,4-2.38q4.13-3.45,4.25-7.85A5.22,5.22,0,0,0,221.64,318.8Zm-33.16-9.42a3,3,0,0,0-1.66-.39,4.51,4.51,0,0,0-2.44,1,16.2,16.2,0,0,0-2.75,2.61,27,27,0,0,0-2.64,3.82,32.86,32.86,0,0,0-2.25,4.62,29.26,29.26,0,0,0-1.56,5,21.15,21.15,0,0,0-.55,4.82,7.85,7.85,0,0,0,.72,3.57,2.25,2.25,0,0,0,2.16,1.29,5,5,0,0,0,3-1,14.36,14.36,0,0,0,2.83-2.73,25.6,25.6,0,0,0,2.58-3.93,38,38,0,0,0,2.12-4.64,25.31,25.31,0,0,0,1.93-9.36c0-2.5-.52-4.06-1.49-4.68Zm-34.46,0a3.05,3.05,0,0,0-1.65-.39,4.51,4.51,0,0,0-2.44,1,15.06,15.06,0,0,0-2.74,2.61,25.71,25.71,0,0,0-2.64,3.82,32.91,32.91,0,0,0-2.26,4.62,31.15,31.15,0,0,0-1.56,5,21.15,21.15,0,0,0-.55,4.82,8.12,8.12,0,0,0,.71,3.57,2.26,2.26,0,0,0,2.17,1.29,5,5,0,0,0,3-1A13.82,13.82,0,0,0,148.9,332a26.09,26.09,0,0,0,2.58-3.93,38,38,0,0,0,2.12-4.64,25.38,25.38,0,0,0,1.9-9.42c0-2.44-.5-4-1.5-4.62Zm0,0a3.05,3.05,0,0,0-1.65-.39,4.51,4.51,0,0,0-2.44,1,15.06,15.06,0,0,0-2.74,2.61,25.71,25.71,0,0,0-2.64,3.82,32.91,32.91,0,0,0-2.26,4.62,31.15,31.15,0,0,0-1.56,5,21.15,21.15,0,0,0-.55,4.82,8.12,8.12,0,0,0,.71,3.57,2.26,2.26,0,0,0,2.17,1.29,5,5,0,0,0,3-1A13.82,13.82,0,0,0,148.9,332a26.09,26.09,0,0,0,2.58-3.93,38,38,0,0,0,2.12-4.64,25.38,25.38,0,0,0,1.9-9.42c0-2.44-.5-4-1.5-4.62Zm34.46,0a3,3,0,0,0-1.66-.39,4.51,4.51,0,0,0-2.44,1,16.2,16.2,0,0,0-2.75,2.61,27,27,0,0,0-2.64,3.82,32.86,32.86,0,0,0-2.25,4.62,29.26,29.26,0,0,0-1.56,5,21.15,21.15,0,0,0-.55,4.82,7.85,7.85,0,0,0,.72,3.57,2.25,2.25,0,0,0,2.16,1.29,5,5,0,0,0,3-1,14.36,14.36,0,0,0,2.83-2.73,25.6,25.6,0,0,0,2.58-3.93,38,38,0,0,0,2.12-4.64,25.31,25.31,0,0,0,1.93-9.36c0-2.5-.52-4.06-1.49-4.68Zm33.16,9.42a9.79,9.79,0,0,0-2.38-.55A22,22,0,0,0,215,319c-1.83.48-3.09.8-3.77,1a32.1,32.1,0,0,0-2.62,10.77,4.46,4.46,0,0,0,1.09,3.41,4.23,4.23,0,0,0,3.2,1.2,11,11,0,0,0,4.19-.89,14.61,14.61,0,0,0,4-2.38q4.13-3.45,4.25-7.85a5.22,5.22,0,0,0-3.7-5.46Zm.65-150.87h-8a5.2,5.2,0,1,0,0,10.4h8a5.2,5.2,0,0,0,0-10.4Zm8.27,17.33h-8a5.2,5.2,0,1,0-.46,10.39h8.46a5.2,5.2,0,0,0,0-10.39Zm4.49,17.32h-8A5.21,5.21,0,1,0,227,213h8a5.2,5.2,0,1,0,.52-10.39H235Zm3.4,17.32h-8a5.2,5.2,0,1,0,0,10.4h8a5.2,5.2,0,0,0,0-10.4Zm18-42.41v-4.34H250.9a18.08,18.08,0,0,1-11.77-4.35,21,21,0,0,0-4.7,4.32h0a12.22,12.22,0,0,1-1.29,5.47,12.11,12.11,0,0,1,7.6,18.46,12.07,12.07,0,0,1,5.09,16.29,10.68,10.68,0,0,1-.91,1.48,12.18,12.18,0,0,1,4.75,5.6A20.67,20.67,0,0,0,274.51,205a21.33,21.33,0,0,0,.49-3.27,25.13,25.13,0,0,1-18.56-24.22Zm28.49,57-5.87-21.86a27.56,27.56,0,0,1-28.74,15,12.15,12.15,0,0,1-7.45,8.79l2.33,8.72a1.27,1.27,0,0,0,1.55.88l37.3-10a1.27,1.27,0,0,0,.87-1.55Zm0,0-5.87-21.86a27.56,27.56,0,0,1-28.74,15,12.15,12.15,0,0,1-7.45,8.79l2.33,8.72a1.27,1.27,0,0,0,1.55.88l37.3-10a1.27,1.27,0,0,0,.87-1.55Zm-28.49-57v-4.34H250.9a18.08,18.08,0,0,1-11.77-4.35,21,21,0,0,0-4.7,4.32h0a12.22,12.22,0,0,1-1.29,5.47,12.11,12.11,0,0,1,7.6,18.46,12.07,12.07,0,0,1,5.09,16.29,10.68,10.68,0,0,1-.91,1.48,12.18,12.18,0,0,1,4.75,5.6A20.67,20.67,0,0,0,274.51,205a21.33,21.33,0,0,0,.49-3.27,25.13,25.13,0,0,1-18.56-24.22Zm-18,42.41h-8a5.2,5.2,0,1,0,0,10.4h8a5.2,5.2,0,0,0,0-10.4Zm-3.4-17.32h-8A5.21,5.21,0,1,0,227,213h8a5.2,5.2,0,1,0,.52-10.39H235Zm-4.49-17.32h-8a5.2,5.2,0,1,0-.46,10.39h8.46a5.2,5.2,0,0,0,0-10.39Zm-8.27-17.33h-8a5.2,5.2,0,1,0,0,10.4h8a5.2,5.2,0,0,0,0-10.4Zm-.65,150.87a9.79,9.79,0,0,0-2.38-.55A22,22,0,0,0,215,319c-1.83.48-3.09.8-3.77,1a32.1,32.1,0,0,0-2.62,10.77,4.46,4.46,0,0,0,1.09,3.41,4.23,4.23,0,0,0,3.2,1.2,11,11,0,0,0,4.19-.89,14.61,14.61,0,0,0,4-2.38q4.13-3.45,4.25-7.85a5.22,5.22,0,0,0-3.7-5.46Zm-33.16-9.42a3,3,0,0,0-1.66-.39,4.51,4.51,0,0,0-2.44,1,16.2,16.2,0,0,0-2.75,2.61,27,27,0,0,0-2.64,3.82,32.86,32.86,0,0,0-2.25,4.62,29.26,29.26,0,0,0-1.56,5,21.15,21.15,0,0,0-.55,4.82,7.85,7.85,0,0,0,.72,3.57,2.25,2.25,0,0,0,2.16,1.29,5,5,0,0,0,3-1,14.36,14.36,0,0,0,2.83-2.73,25.6,25.6,0,0,0,2.58-3.93,38,38,0,0,0,2.12-4.64,25.31,25.31,0,0,0,1.93-9.36c0-2.5-.52-4.06-1.49-4.68Zm-34.46,0a3.05,3.05,0,0,0-1.65-.39,4.51,4.51,0,0,0-2.44,1,15.06,15.06,0,0,0-2.74,2.61,25.71,25.71,0,0,0-2.64,3.82,32.91,32.91,0,0,0-2.26,4.62,31.15,31.15,0,0,0-1.56,5,21.15,21.15,0,0,0-.55,4.82,8.12,8.12,0,0,0,.71,3.57,2.26,2.26,0,0,0,2.17,1.29,5,5,0,0,0,3-1A13.82,13.82,0,0,0,148.9,332a26.09,26.09,0,0,0,2.58-3.93,38,38,0,0,0,2.12-4.64,25.38,25.38,0,0,0,1.9-9.42c0-2.44-.5-4-1.5-4.62Zm0,0a3.05,3.05,0,0,0-1.65-.39,4.51,4.51,0,0,0-2.44,1,15.06,15.06,0,0,0-2.74,2.61,25.71,25.71,0,0,0-2.64,3.82,32.91,32.91,0,0,0-2.26,4.62,31.15,31.15,0,0,0-1.56,5,21.15,21.15,0,0,0-.55,4.82,8.12,8.12,0,0,0,.71,3.57,2.26,2.26,0,0,0,2.17,1.29,5,5,0,0,0,3-1A13.82,13.82,0,0,0,148.9,332a26.09,26.09,0,0,0,2.58-3.93,38,38,0,0,0,2.12-4.64,25.38,25.38,0,0,0,1.9-9.42c0-2.44-.5-4-1.5-4.62Zm68.27-141.45h-8a5.2,5.2,0,1,0,0,10.4h8a5.2,5.2,0,0,0,0-10.4Zm8.27,17.33h-8a5.2,5.2,0,1,0-.46,10.39h8.46a5.2,5.2,0,0,0,0-10.39Zm4.49,17.32h-8A5.21,5.21,0,1,0,227,213h8a5.2,5.2,0,1,0,.52-10.39H235Zm3.4,17.32h-8a5.2,5.2,0,1,0,0,10.4h8a5.2,5.2,0,0,0,0-10.4Zm18-42.41v-4.34H250.9a18.08,18.08,0,0,1-11.77-4.35,21,21,0,0,0-4.7,4.32h0a12.22,12.22,0,0,1-1.29,5.47,12.11,12.11,0,0,1,7.6,18.46,12.07,12.07,0,0,1,5.09,16.29,10.68,10.68,0,0,1-.91,1.48,12.18,12.18,0,0,1,4.75,5.6A20.67,20.67,0,0,0,274.51,205a21.33,21.33,0,0,0,.49-3.27,25.13,25.13,0,0,1-18.56-24.22Zm28.49,57-5.87-21.86a27.56,27.56,0,0,1-28.74,15,12.15,12.15,0,0,1-7.45,8.79l2.33,8.72a1.27,1.27,0,0,0,1.55.88l37.3-10a1.27,1.27,0,0,0,.87-1.55Zm0,0-5.87-21.86a27.56,27.56,0,0,1-28.74,15,12.15,12.15,0,0,1-7.45,8.79l2.33,8.72a1.27,1.27,0,0,0,1.55.88l37.3-10a1.27,1.27,0,0,0,.87-1.55Zm-28.49-57v-4.34H250.9a18.08,18.08,0,0,1-11.77-4.35,21,21,0,0,0-4.7,4.32h0a12.22,12.22,0,0,1-1.29,5.47,12.11,12.11,0,0,1,7.6,18.46,12.07,12.07,0,0,1,5.09,16.29,10.68,10.68,0,0,1-.91,1.48,12.18,12.18,0,0,1,4.75,5.6A20.67,20.67,0,0,0,274.51,205a21.33,21.33,0,0,0,.49-3.27,25.13,25.13,0,0,1-18.56-24.22Zm-18,42.41h-8a5.2,5.2,0,1,0,0,10.4h8a5.2,5.2,0,0,0,0-10.4Zm-3.4-17.32h-8A5.21,5.21,0,1,0,227,213h8a5.2,5.2,0,1,0,.52-10.39H235Zm-4.49-17.32h-8a5.2,5.2,0,1,0-.46,10.39h8.46a5.2,5.2,0,0,0,0-10.39Zm-8.27-17.33h-8a5.2,5.2,0,1,0,0,10.4h8a5.2,5.2,0,0,0,0-10.4ZM154,309.38a3.05,3.05,0,0,0-1.65-.39,4.51,4.51,0,0,0-2.44,1,15.06,15.06,0,0,0-2.74,2.61,25.71,25.71,0,0,0-2.64,3.82,32.91,32.91,0,0,0-2.26,4.62,31.15,31.15,0,0,0-1.56,5,21.15,21.15,0,0,0-.55,4.82,8.12,8.12,0,0,0,.71,3.57,2.26,2.26,0,0,0,2.17,1.29,5,5,0,0,0,3-1,13.87,13.87,0,0,0,2.84-2.73,26.09,26.09,0,0,0,2.58-3.93,38,38,0,0,0,2.12-4.64A25.61,25.61,0,0,0,155.5,314C155.5,311.56,155,310,154,309.38Zm68.27-141.45h-8a5.2,5.2,0,1,0,0,10.4h8a5.2,5.2,0,0,0,0-10.4Zm8.27,17.33h-8a5.2,5.2,0,1,0-.46,10.39h8.46a5.2,5.2,0,0,0,0-10.39ZM235,202.58h-8A5.21,5.21,0,0,0,227,213h8a5.2,5.2,0,1,0,.52-10.39H235Zm3.4,17.32h-8a5.2,5.2,0,1,0,0,10.4h8a5.2,5.2,0,0,0,0-10.4Zm18-42.41v-4.34h-5.55a18,18,0,0,1-11.77-4.35,21,21,0,0,0-4.7,4.32h0a12.22,12.22,0,0,1-1.29,5.47,12.11,12.11,0,0,1,7.6,18.46,12.07,12.07,0,0,1,5.09,16.29,10.68,10.68,0,0,1-.91,1.48,12.18,12.18,0,0,1,4.75,5.6A20.69,20.69,0,0,0,275,201.71a25.13,25.13,0,0,1-18.56-24.22Zm28.49,57L279,212.63a27.56,27.56,0,0,1-28.74,15,12.15,12.15,0,0,1-7.45,8.79l2.33,8.72a1.27,1.27,0,0,0,1.55.88L284,236a1.26,1.26,0,0,0,.89-1.54h0Zm0,0L279,212.63a27.56,27.56,0,0,1-28.74,15,12.15,12.15,0,0,1-7.45,8.79l2.33,8.72a1.27,1.27,0,0,0,1.55.88L284,236a1.26,1.26,0,0,0,.89-1.54h0Zm-28.49-57v-4.34h-5.55a18,18,0,0,1-11.77-4.35,21,21,0,0,0-4.7,4.32h0a12.22,12.22,0,0,1-1.29,5.47,12.11,12.11,0,0,1,7.6,18.46,12.07,12.07,0,0,1,5.09,16.29,10.68,10.68,0,0,1-.91,1.48,12.18,12.18,0,0,1,4.75,5.6A20.69,20.69,0,0,0,275,201.71a25.13,25.13,0,0,1-18.56-24.22Zm-18,42.41h-8a5.2,5.2,0,1,0,0,10.4h8a5.2,5.2,0,0,0,0-10.4ZM235,202.58h-8A5.21,5.21,0,0,0,227,213h8a5.2,5.2,0,1,0,.52-10.39H235Zm-4.49-17.32h-8a5.2,5.2,0,1,0-.46,10.39h8.46a5.2,5.2,0,0,0,0-10.39Zm-8.27-17.33h-8a5.2,5.2,0,1,0,0,10.4h8a5.2,5.2,0,0,0,0-10.4Zm0,0h-8a5.2,5.2,0,1,0,0,10.4h8a5.2,5.2,0,0,0,0-10.4Zm8.27,17.33h-8a5.2,5.2,0,1,0-.46,10.39h8.46a5.2,5.2,0,0,0,0-10.39ZM235,202.58h-8A5.21,5.21,0,0,0,227,213h8a5.2,5.2,0,1,0,.52-10.39H235Zm3.4,17.32h-8a5.2,5.2,0,1,0,0,10.4h8a5.2,5.2,0,0,0,0-10.4Zm18-42.41v-4.34h-5.55a18,18,0,0,1-11.77-4.35,21,21,0,0,0-4.7,4.32h0a12.22,12.22,0,0,1-1.29,5.47,12.11,12.11,0,0,1,7.6,18.46,12.07,12.07,0,0,1,5.09,16.29,10.68,10.68,0,0,1-.91,1.48,12.18,12.18,0,0,1,4.75,5.6A20.69,20.69,0,0,0,275,201.71a25.13,25.13,0,0,1-18.56-24.22Zm28.49,57L279,212.63a27.56,27.56,0,0,1-28.74,15,12.15,12.15,0,0,1-7.45,8.79l2.33,8.72a1.27,1.27,0,0,0,1.55.88L284,236a1.26,1.26,0,0,0,.89-1.54h0Zm0,0L279,212.63a27.56,27.56,0,0,1-28.74,15,12.15,12.15,0,0,1-7.45,8.79l2.33,8.72a1.27,1.27,0,0,0,1.55.88L284,236a1.26,1.26,0,0,0,.89-1.54h0Zm-28.49-57v-4.34h-5.55a18,18,0,0,1-11.77-4.35,21,21,0,0,0-4.7,4.32h0a12.22,12.22,0,0,1-1.29,5.47,12.11,12.11,0,0,1,7.6,18.46,12.07,12.07,0,0,1,5.09,16.29,10.68,10.68,0,0,1-.91,1.48,12.18,12.18,0,0,1,4.75,5.6A20.69,20.69,0,0,0,275,201.71a25.13,25.13,0,0,1-18.56-24.22Zm-18,42.41h-8a5.2,5.2,0,1,0,0,10.4h8a5.2,5.2,0,0,0,0-10.4ZM235,202.58h-8A5.21,5.21,0,0,0,227,213h8a5.2,5.2,0,1,0,.52-10.39H235Zm-4.49-17.32h-8a5.2,5.2,0,1,0-.46,10.39h8.46a5.2,5.2,0,0,0,0-10.39Zm-8.27-17.33h-8a5.2,5.2,0,1,0,0,10.4h8a5.2,5.2,0,0,0,0-10.4Zm0,0h-8a5.2,5.2,0,1,0,0,10.4h8a5.2,5.2,0,0,0,0-10.4Zm8.27,17.33h-8a5.2,5.2,0,1,0-.46,10.39h8.46a5.2,5.2,0,0,0,0-10.39ZM235,202.58h-8A5.21,5.21,0,0,0,227,213h8a5.2,5.2,0,1,0,.52-10.39H235Zm3.4,17.32h-8a5.2,5.2,0,1,0,0,10.4h8a5.2,5.2,0,0,0,0-10.4Zm18-42.41v-4.34h-5.55a18,18,0,0,1-11.77-4.35,21,21,0,0,0-4.7,4.32h0a12.22,12.22,0,0,1-1.29,5.47,12.11,12.11,0,0,1,7.6,18.46,12.07,12.07,0,0,1,5.09,16.29,10.68,10.68,0,0,1-.91,1.48,12.18,12.18,0,0,1,4.75,5.6A20.69,20.69,0,0,0,275,201.71a25.13,25.13,0,0,1-18.56-24.22Zm28.49,57L279,212.63a27.56,27.56,0,0,1-28.74,15,12.15,12.15,0,0,1-7.45,8.79l2.33,8.72a1.27,1.27,0,0,0,1.55.88L284,236a1.26,1.26,0,0,0,.89-1.54h0Zm0,0L279,212.63a27.56,27.56,0,0,1-28.74,15,12.15,12.15,0,0,1-7.45,8.79l2.33,8.72a1.27,1.27,0,0,0,1.55.88L284,236a1.26,1.26,0,0,0,.89-1.54h0Zm-28.49-57v-4.34h-5.55a18,18,0,0,1-11.77-4.35,21,21,0,0,0-4.7,4.32h0a12.22,12.22,0,0,1-1.29,5.47,12.11,12.11,0,0,1,7.6,18.46,12.07,12.07,0,0,1,5.09,16.29,10.68,10.68,0,0,1-.91,1.48,12.18,12.18,0,0,1,4.75,5.6A20.69,20.69,0,0,0,275,201.71a25.13,25.13,0,0,1-18.56-24.22Zm-18,42.41h-8a5.2,5.2,0,1,0,0,10.4h8a5.2,5.2,0,0,0,0-10.4ZM235,202.58h-8A5.21,5.21,0,0,0,227,213h8a5.2,5.2,0,1,0,.52-10.39H235Zm-4.49-17.32h-8a5.2,5.2,0,1,0-.46,10.39h8.46a5.2,5.2,0,0,0,0-10.39Zm-8.27-17.33h-8a5.2,5.2,0,1,0,0,10.4h8a5.2,5.2,0,0,0,0-10.4Z" transform="translate(0 -0.03)"/></g></g></g></g></svg>