<?xml version="1.0" encoding="utf-8"?>
<!-- Generator: Adobe Illustrator 24.1.2, SVG Export Plug-In . SVG Version: 6.00 Build 0)  -->
<svg version="1.1" id="Layer_1" xmlns="http://www.w3.org/2000/svg" xmlns:xlink="http://www.w3.org/1999/xlink" x="0px" y="0px"
	 viewBox="0 0 182.8 158.7" style="enable-background:new 0 0 182.8 158.7;" xml:space="preserve">
<style type="text/css">
	.st0{fill:#ECA702;}
</style>
<g id="Layer_2_1_">
	<g id="barrel">
		<path class="st0" d="M136.3,112.8h-0.1c-0.7,1.1-1.4,2.3-2.1,3.5c0.9,0.2,1.9,0.4,2.8,0.6C136.6,115.5,136.5,114.2,136.3,112.8z
			 M148,114.6c-0.3-0.3-0.7-0.6-1.4-0.8c-0.1,0-0.3-0.1-0.4-0.1c-0.3,1.2-0.6,2.3-0.9,3.5c0.2,0,0.4,0.1,0.6,0.2
			c0.4,0.1,0.7,0.2,1,0.2s0.5,0,0.7,0c0.1-0.2,0.2-0.4,0.3-0.7c0.1-0.3,0.2-0.5,0.3-0.8C148.3,115.5,148.3,115,148,114.6z
			 M148,114.6c-0.3-0.3-0.7-0.6-1.4-0.8c-0.1,0-0.3-0.1-0.4-0.1c-0.3,1.2-0.6,2.3-0.9,3.5c0.2,0,0.4,0.1,0.6,0.2
			c0.4,0.1,0.7,0.2,1,0.2s0.5,0,0.7,0c0.1-0.2,0.2-0.4,0.3-0.7c0.1-0.3,0.2-0.5,0.3-0.8C148.3,115.5,148.3,115,148,114.6z
			 M136.3,112.8h-0.1c-0.7,1.1-1.4,2.3-2.1,3.5c0.9,0.2,1.9,0.4,2.8,0.6C136.6,115.5,136.5,114.2,136.3,112.8z M136.3,112.8h-0.1
			c-0.7,1.1-1.4,2.3-2.1,3.5c0.9,0.2,1.9,0.4,2.8,0.6C136.6,115.5,136.5,114.2,136.3,112.8z M148,114.6c-0.3-0.3-0.7-0.6-1.4-0.8
			c-0.1,0-0.3-0.1-0.4-0.1c-0.3,1.2-0.6,2.3-0.9,3.5c0.2,0,0.4,0.1,0.6,0.2c0.4,0.1,0.7,0.2,1,0.2s0.5,0,0.7,0
			c0.1-0.2,0.2-0.4,0.3-0.7c0.1-0.3,0.2-0.5,0.3-0.8C148.3,115.5,148.3,115,148,114.6z M148,114.6c-0.3-0.3-0.7-0.6-1.4-0.8
			c-0.1,0-0.3-0.1-0.4-0.1c-0.3,1.2-0.6,2.3-0.9,3.5c0.2,0,0.4,0.1,0.6,0.2c0.4,0.1,0.7,0.2,1,0.2s0.5,0,0.7,0
			c0.1-0.2,0.2-0.4,0.3-0.7c0.1-0.3,0.2-0.5,0.3-0.8C148.3,115.5,148.3,115,148,114.6z M136.3,112.8h-0.1c-0.7,1.1-1.4,2.3-2.1,3.5
			c0.9,0.2,1.9,0.4,2.8,0.6C136.6,115.5,136.5,114.2,136.3,112.8z M98.3,107.5c-0.5-0.6-1.2-0.9-2.1-0.9c-0.4,0-0.8,0-1.2,0.1
			c-0.4,0.1-0.7,0.2-0.9,0.4c-0.1,0.3-0.2,0.8-0.3,1.5s-0.2,1.3-0.2,2c0,0.3,0,0.7,0,1c0,1.1,0.2,1.9,0.8,2.6c0.5,0.6,1.2,0.9,2,1
			c0.4,0,0.8,0,1.2-0.1c0.4-0.1,0.6-0.2,0.8-0.3c0.1-0.4,0.3-0.9,0.4-1.6s0.2-1.3,0.2-2c0-0.3,0-0.7,0-1
			C98.9,109,98.7,108.1,98.3,107.5z M108.4,107.8c-0.3-0.3-0.9-0.5-1.6-0.6c-0.2,0-0.4,0-0.7,0c-0.1,1.2-0.2,2.4-0.3,3.6
			c0.3,0,0.6,0,0.9,0.1c0.3,0,0.6,0,0.9,0s0.5-0.1,0.7-0.1c0.1-0.2,0.2-0.4,0.2-0.7c0.1-0.3,0.1-0.5,0.1-0.8
			C108.9,108.6,108.8,108.2,108.4,107.8z M136.3,112.8h-0.1c-0.7,1.1-1.4,2.3-2.1,3.5c0.9,0.2,1.9,0.4,2.8,0.6
			C136.6,115.5,136.5,114.2,136.3,112.8z M148,114.6c-0.3-0.3-0.7-0.6-1.4-0.8c-0.1,0-0.3-0.1-0.4-0.1c-0.3,1.2-0.6,2.3-0.9,3.5
			c0.2,0,0.4,0.1,0.6,0.2c0.4,0.1,0.7,0.2,1,0.2s0.5,0,0.7,0c0.1-0.2,0.2-0.4,0.3-0.7c0.1-0.3,0.2-0.5,0.3-0.8
			C148.3,115.5,148.3,115,148,114.6z M148,114.6c-0.3-0.3-0.7-0.6-1.4-0.8c-0.1,0-0.3-0.1-0.4-0.1c-0.3,1.2-0.6,2.3-0.9,3.5
			c0.2,0,0.4,0.1,0.6,0.2c0.4,0.1,0.7,0.2,1,0.2s0.5,0,0.7,0c0.1-0.2,0.2-0.4,0.3-0.7c0.1-0.3,0.2-0.5,0.3-0.8
			C148.3,115.5,148.3,115,148,114.6z M136.3,112.8h-0.1c-0.7,1.1-1.4,2.3-2.1,3.5c0.9,0.2,1.9,0.4,2.8,0.6
			C136.6,115.5,136.5,114.2,136.3,112.8z M108.4,107.8c-0.3-0.3-0.9-0.5-1.6-0.6c-0.2,0-0.4,0-0.7,0c-0.1,1.2-0.2,2.4-0.3,3.6
			c0.3,0,0.6,0,0.9,0.1c0.3,0,0.6,0,0.9,0s0.5-0.1,0.7-0.1c0.1-0.2,0.2-0.4,0.2-0.7c0.1-0.3,0.1-0.5,0.1-0.8
			C108.9,108.6,108.8,108.2,108.4,107.8z M98.3,107.5c-0.5-0.6-1.2-0.9-2.1-0.9c-0.4,0-0.8,0-1.2,0.1c-0.4,0.1-0.7,0.2-0.9,0.4
			c-0.1,0.3-0.2,0.8-0.3,1.5s-0.2,1.3-0.2,2c0,0.3,0,0.7,0,1c0,1.1,0.2,1.9,0.8,2.6c0.5,0.6,1.2,0.9,2,1c0.4,0,0.8,0,1.2-0.1
			c0.4-0.1,0.6-0.2,0.8-0.3c0.1-0.4,0.3-0.9,0.4-1.6s0.2-1.3,0.2-2c0-0.3,0-0.7,0-1C98.9,109,98.7,108.1,98.3,107.5z M87.3,107.2
			c-0.4-0.3-0.9-0.4-1.6-0.4c-0.2,0-0.4,0-0.7,0c0,1.2,0.1,2.4,0.1,3.6H86c0.3,0,0.6,0,0.9-0.1c0.3,0,0.5-0.1,0.7-0.2
			c0.1-0.2,0.1-0.5,0.2-0.7c0-0.3,0-0.6,0-0.8C87.8,107.9,87.6,107.5,87.3,107.2z M98.3,107.5c-0.5-0.6-1.2-0.9-2.1-0.9
			c-0.4,0-0.8,0-1.2,0.1c-0.4,0.1-0.7,0.2-0.9,0.4c-0.1,0.3-0.2,0.8-0.3,1.5s-0.2,1.3-0.2,2c0,0.3,0,0.7,0,1c0,1.1,0.2,1.9,0.8,2.6
			c0.5,0.6,1.2,0.9,2,1c0.4,0,0.8,0,1.2-0.1c0.4-0.1,0.6-0.2,0.8-0.3c0.1-0.4,0.3-0.9,0.4-1.6s0.2-1.3,0.2-2c0-0.3,0-0.7,0-1
			C98.9,109,98.7,108.1,98.3,107.5z M108.4,107.8c-0.3-0.3-0.9-0.5-1.6-0.6c-0.2,0-0.4,0-0.7,0c-0.1,1.2-0.2,2.4-0.3,3.6
			c0.3,0,0.6,0,0.9,0.1c0.3,0,0.6,0,0.9,0s0.5-0.1,0.7-0.1c0.1-0.2,0.2-0.4,0.2-0.7c0.1-0.3,0.1-0.5,0.1-0.8
			C108.9,108.6,108.8,108.2,108.4,107.8z M136.3,112.8h-0.1c-0.7,1.1-1.4,2.3-2.1,3.5c0.9,0.2,1.9,0.4,2.8,0.6
			C136.6,115.5,136.5,114.2,136.3,112.8z M148,114.6c-0.3-0.3-0.7-0.6-1.4-0.8c-0.1,0-0.3-0.1-0.4-0.1c-0.3,1.2-0.6,2.3-0.9,3.5
			c0.2,0,0.4,0.1,0.6,0.2c0.4,0.1,0.7,0.2,1,0.2s0.5,0,0.7,0c0.1-0.2,0.2-0.4,0.3-0.7c0.1-0.3,0.2-0.5,0.3-0.8
			C148.3,115.5,148.3,115,148,114.6z M148,114.6c-0.3-0.3-0.7-0.6-1.4-0.8c-0.1,0-0.3-0.1-0.4-0.1c-0.3,1.2-0.6,2.3-0.9,3.5
			c0.2,0,0.4,0.1,0.6,0.2c0.4,0.1,0.7,0.2,1,0.2s0.5,0,0.7,0c0.1-0.2,0.2-0.4,0.3-0.7c0.1-0.3,0.2-0.5,0.3-0.8
			C148.3,115.5,148.3,115,148,114.6z M136.3,112.8h-0.1c-0.7,1.1-1.4,2.3-2.1,3.5c0.9,0.2,1.9,0.4,2.8,0.6
			C136.6,115.5,136.5,114.2,136.3,112.8z M108.4,107.8c-0.3-0.3-0.9-0.5-1.6-0.6c-0.2,0-0.4,0-0.7,0c-0.1,1.2-0.2,2.4-0.3,3.6
			c0.3,0,0.6,0,0.9,0.1c0.3,0,0.6,0,0.9,0s0.5-0.1,0.7-0.1c0.1-0.2,0.2-0.4,0.2-0.7c0.1-0.3,0.1-0.5,0.1-0.8
			C108.9,108.6,108.8,108.2,108.4,107.8z M98.3,107.5c-0.5-0.6-1.2-0.9-2.1-0.9c-0.4,0-0.8,0-1.2,0.1c-0.4,0.1-0.7,0.2-0.9,0.4
			c-0.1,0.3-0.2,0.8-0.3,1.5s-0.2,1.3-0.2,2c0,0.3,0,0.7,0,1c0,1.1,0.2,1.9,0.8,2.6c0.5,0.6,1.2,0.9,2,1c0.4,0,0.8,0,1.2-0.1
			c0.4-0.1,0.6-0.2,0.8-0.3c0.1-0.4,0.3-0.9,0.4-1.6s0.2-1.3,0.2-2c0-0.3,0-0.7,0-1C98.9,109,98.7,108.1,98.3,107.5z M87.3,107.2
			c-0.4-0.3-0.9-0.4-1.6-0.4c-0.2,0-0.4,0-0.7,0c0,1.2,0.1,2.4,0.1,3.6H86c0.3,0,0.6,0,0.9-0.1c0.3,0,0.5-0.1,0.7-0.2
			c0.1-0.2,0.1-0.5,0.2-0.7c0-0.3,0-0.6,0-0.8C87.8,107.9,87.6,107.5,87.3,107.2z M55,116c0-0.7-0.1-1.3-0.2-2
			c-0.1-0.3-0.1-0.7-0.2-1c-0.2-1.1-0.6-1.9-1.2-2.4c-0.6-0.5-1.3-0.7-2.3-0.5c-0.4,0.1-0.8,0.2-1.1,0.4c-0.3,0.2-0.6,0.4-0.8,0.5
			c0,0.3,0,0.9,0,1.5c0,0.7,0.1,1.4,0.2,2c0.1,0.3,0.1,0.7,0.2,1c0.2,1.1,0.6,1.9,1.3,2.3c0.6,0.5,1.3,0.7,2.2,0.5
			c0.4-0.1,0.8-0.2,1.1-0.4c0.3-0.2,0.6-0.3,0.7-0.5C55,117.3,55,116.7,55,116z M87.3,107.2c-0.4-0.3-0.9-0.4-1.6-0.4
			c-0.2,0-0.4,0-0.7,0c0,1.2,0.1,2.4,0.1,3.6H86c0.3,0,0.6,0,0.9-0.1c0.3,0,0.5-0.1,0.7-0.2c0.1-0.2,0.1-0.5,0.2-0.7
			c0-0.3,0-0.6,0-0.8C87.8,107.9,87.6,107.5,87.3,107.2z M98.3,107.5c-0.5-0.6-1.2-0.9-2.1-0.9c-0.4,0-0.8,0-1.2,0.1
			c-0.4,0.1-0.7,0.2-0.9,0.4c-0.1,0.3-0.2,0.8-0.3,1.5s-0.2,1.3-0.2,2c0,0.3,0,0.7,0,1c0,1.1,0.2,1.9,0.8,2.6c0.5,0.6,1.2,0.9,2,1
			c0.4,0,0.8,0,1.2-0.1c0.4-0.1,0.6-0.2,0.8-0.3c0.1-0.4,0.3-0.9,0.4-1.6s0.2-1.3,0.2-2c0-0.3,0-0.7,0-1
			C98.9,109,98.7,108.1,98.3,107.5z M108.4,107.8c-0.3-0.3-0.9-0.5-1.6-0.6c-0.2,0-0.4,0-0.7,0c-0.1,1.2-0.2,2.4-0.3,3.6
			c0.3,0,0.6,0,0.9,0.1c0.3,0,0.6,0,0.9,0s0.5-0.1,0.7-0.1c0.1-0.2,0.2-0.4,0.2-0.7c0.1-0.3,0.1-0.5,0.1-0.8
			C108.9,108.6,108.8,108.2,108.4,107.8z M136.3,112.8h-0.1c-0.7,1.1-1.4,2.3-2.1,3.5c0.9,0.2,1.9,0.4,2.8,0.6
			C136.6,115.5,136.5,114.2,136.3,112.8z M148,114.6c-0.3-0.3-0.7-0.6-1.4-0.8c-0.1,0-0.3-0.1-0.4-0.1c-0.3,1.2-0.6,2.3-0.9,3.5
			c0.2,0,0.4,0.1,0.6,0.2c0.4,0.1,0.7,0.2,1,0.2s0.5,0,0.7,0c0.1-0.2,0.2-0.4,0.3-0.7c0.1-0.3,0.2-0.5,0.3-0.8
			C148.3,115.5,148.3,115,148,114.6z M148,114.6c-0.3-0.3-0.7-0.6-1.4-0.8c-0.1,0-0.3-0.1-0.4-0.1c-0.3,1.2-0.6,2.3-0.9,3.5
			c0.2,0,0.4,0.1,0.6,0.2c0.4,0.1,0.7,0.2,1,0.2s0.5,0,0.7,0c0.1-0.2,0.2-0.4,0.3-0.7c0.1-0.3,0.2-0.5,0.3-0.8
			C148.3,115.5,148.3,115,148,114.6z M136.3,112.8h-0.1c-0.7,1.1-1.4,2.3-2.1,3.5c0.9,0.2,1.9,0.4,2.8,0.6
			C136.6,115.5,136.5,114.2,136.3,112.8z M108.4,107.8c-0.3-0.3-0.9-0.5-1.6-0.6c-0.2,0-0.4,0-0.7,0c-0.1,1.2-0.2,2.4-0.3,3.6
			c0.3,0,0.6,0,0.9,0.1c0.3,0,0.6,0,0.9,0s0.5-0.1,0.7-0.1c0.1-0.2,0.2-0.4,0.2-0.7c0.1-0.3,0.1-0.5,0.1-0.8
			C108.9,108.6,108.8,108.2,108.4,107.8z M98.3,107.5c-0.5-0.6-1.2-0.9-2.1-0.9c-0.4,0-0.8,0-1.2,0.1c-0.4,0.1-0.7,0.2-0.9,0.4
			c-0.1,0.3-0.2,0.8-0.3,1.5s-0.2,1.3-0.2,2c0,0.3,0,0.7,0,1c0,1.1,0.2,1.9,0.8,2.6c0.5,0.6,1.2,0.9,2,1c0.4,0,0.8,0,1.2-0.1
			c0.4-0.1,0.6-0.2,0.8-0.3c0.1-0.4,0.3-0.9,0.4-1.6s0.2-1.3,0.2-2c0-0.3,0-0.7,0-1C98.9,109,98.7,108.1,98.3,107.5z M87.3,107.2
			c-0.4-0.3-0.9-0.4-1.6-0.4c-0.2,0-0.4,0-0.7,0c0,1.2,0.1,2.4,0.1,3.6H86c0.3,0,0.6,0,0.9-0.1c0.3,0,0.5-0.1,0.7-0.2
			c0.1-0.2,0.1-0.5,0.2-0.7c0-0.3,0-0.6,0-0.8C87.8,107.9,87.6,107.5,87.3,107.2z M55,116c0-0.7-0.1-1.3-0.2-2
			c-0.1-0.3-0.1-0.7-0.2-1c-0.2-1.1-0.6-1.9-1.2-2.4c-0.6-0.5-1.3-0.7-2.3-0.5c-0.4,0.1-0.8,0.2-1.1,0.4c-0.3,0.2-0.6,0.4-0.8,0.5
			c0,0.3,0,0.9,0,1.5c0,0.7,0.1,1.4,0.2,2c0.1,0.3,0.1,0.7,0.2,1c0.2,1.1,0.6,1.9,1.3,2.3c0.6,0.5,1.3,0.7,2.2,0.5
			c0.4-0.1,0.8-0.2,1.1-0.4c0.3-0.2,0.6-0.3,0.7-0.5C55,117.3,55,116.7,55,116z M16.7,112.4l5.7,25c45.2-19.1,92.8-19.1,138,0
			c1.9-8.3,3.8-16.7,5.7-25C117.3,91.7,65.5,91.7,16.7,112.4z M19.2,114c4.2-1.3,6.3-1.9,10.5-2.9c-4,2-6,3-10,5.2
			C19.5,115.4,19.4,115,19.2,114z M20.6,120.2L20.6,120.2c4.1-1.3,6.2-1.8,10.3-2.8c-3.9,1.9-5.9,3-9.8,5.1
			C20.9,121.5,20.8,121.1,20.6,120.2z M21.9,126.3L21.9,126.3c4-1.2,6-1.8,10.1-2.8c-3.9,1.9-5.8,2.9-9.6,5
			C22.3,127.7,22.1,127.2,21.9,126.3z M23.8,134.7L23.8,134.7l-0.5-2.3c4-1.2,5.9-1.7,9.9-2.6C29.4,131.6,27.5,132.6,23.8,134.7z
			 M42.6,121.7c-0.1-0.3-0.2-0.6-0.4-0.9c0.3-0.2,0.7-0.3,1-0.5c-0.6-2.5-1.2-5-1.7-7.5h-0.1c-0.5,3.2-0.9,6.3-1.3,9.4
			c-0.5,0.1-1,0.3-1.6,0.4c-1.9-2.6-3.8-5.1-5.7-7.7h-0.1c0.7,2.5,1.4,4.9,2,7.4c0.4,0,0.8,0,1.2,0c0,0.3,0.1,0.6,0.1,0.9
			c-1.1,0.3-2.3,0.6-3.4,1c-0.1-0.3-0.3-0.6-0.4-0.8c0.3-0.2,0.7-0.4,1-0.6c-0.7-2.6-1.5-5.3-2.2-7.9c-0.4,0-0.8,0-1.2,0.1
			c0-0.3-0.1-0.6-0.1-0.9c1.5-0.4,2.9-0.8,4.4-1.2c1.7,2.2,3.3,4.4,4.9,6.6h0.1c0.3-2.7,0.6-5.4,1-8.1c1.5-0.4,3-0.7,4.5-1
			c0.1,0.3,0.2,0.6,0.4,0.9c-0.4,0.2-0.7,0.3-1.1,0.5c0.6,2.7,1.2,5.3,1.8,8c0.4,0,0.8,0,1.2,0c0,0.3,0,0.6,0,0.9
			C45.4,121.1,44,121.4,42.6,121.7z M56.5,117.6c-0.7,1.1-1.9,1.8-3.6,2.2c-1.6,0.3-2.8,0.2-3.8-0.4c-0.9-0.5-1.6-1.5-1.8-2.9
			c0-0.2-0.1-0.4-0.1-0.6c-0.4-2-0.3-3.6,0.4-4.7s1.9-1.9,3.7-2.2c1.7-0.3,3-0.2,3.9,0.4c1,0.6,1.6,1.6,1.8,3c0,0.2,0.1,0.4,0.1,0.6
			C57.4,114.9,57.2,116.5,56.5,117.6z M65.7,117c-0.7,0.6-1.7,1-3,1.2c-0.6,0.1-1.2,0.1-1.8,0.1s-1.1-0.1-1.5-0.2
			c-0.2-0.7-0.3-1.4-0.5-2.1c0.4-0.1,0.9-0.3,1.3-0.4c0.3,0.5,0.6,0.9,0.9,1.4c0.2,0,0.5,0,0.7,0c0.3,0,0.5,0,0.8-0.1
			c0.3,0,0.5-0.1,0.8-0.2s0.5-0.2,0.7-0.3c0-0.1,0.1-0.3,0.1-0.5s0-0.4,0-0.6c0-0.4-0.3-0.8-0.6-1c-0.4-0.3-1-0.6-2-1
			c-1.5-0.6-2.4-1-2.9-1.5c-0.5-0.4-0.7-0.9-0.8-1.5c-0.1-0.8,0.2-1.5,0.9-2.1s1.8-1,3.1-1.2c0.6-0.1,1.1-0.1,1.7-0.1
			c0.5,0,1,0,1.5,0.1c0.1,0.7,0.3,1.5,0.4,2.2c-0.4,0.1-0.8,0.2-1.2,0.3c-0.3-0.5-0.6-1-0.9-1.4c-0.2,0-0.4,0-0.7,0s-0.5,0-0.7,0.1
			c-0.3,0-0.5,0.1-0.8,0.2s-0.5,0.2-0.8,0.3c0,0.1,0,0.3,0,0.5s0,0.3,0,0.5c0,0.3,0.2,0.6,0.5,0.8c0.3,0.2,1,0.5,2.1,1
			c1.3,0.5,2.3,1,2.8,1.4c0.5,0.5,0.8,1,0.9,1.8C66.7,115.7,66.4,116.5,65.7,117z M75,108.6c-0.2-0.4-0.4-0.9-0.6-1.3
			c-0.6,0-1.3,0.1-1.9,0.2c0.2,2.7,0.5,5.5,0.7,8.2c0.4,0.1,0.8,0.1,1.2,0.2c0,0.3-0.1,0.6-0.1,0.9c-1.4,0.1-2.9,0.2-4.3,0.4
			c-0.1-0.3-0.2-0.6-0.3-0.9c0.4-0.1,0.7-0.3,1.1-0.4c-0.3-2.7-0.5-5.5-0.8-8.2c-0.6,0.1-1.3,0.1-1.9,0.2c-0.1,0.5-0.3,0.9-0.4,1.4
			c-0.4,0-0.8,0-1.2,0.1c0-0.8-0.1-1.6-0.1-2.4c3.2-0.4,6.4-0.6,9.6-0.9c0.1,0.8,0.2,1.6,0.3,2.4C75.8,108.5,75.4,108.5,75,108.6z
			 M89.2,110.6c-0.7,0.6-1.6,0.9-2.7,0.9c-0.5,0-0.9,0-1.4,0c0,1.1,0.1,2.3,0.1,3.4c0.6,0.1,1.1,0.2,1.7,0.2c0,0.3-0.1,0.6-0.1,0.9
			c-1.6,0-3.2,0.1-4.9,0.1c-0.1-0.3-0.1-0.6-0.2-0.9c0.4-0.1,0.7-0.2,1.1-0.3c-0.1-2.7-0.2-5.5-0.3-8.2c-0.4-0.1-0.8-0.2-1.2-0.2
			c0-0.3,0.1-0.6,0.1-0.9c1.6-0.1,3.2-0.1,4.8-0.1c1.4,0,2.4,0.2,3.1,0.6c0.7,0.5,1,1.2,1,2.1C90.3,109.3,90,110.1,89.2,110.6z
			 M101.3,110.5c-0.1,2-0.6,3.5-1.5,4.5s-2.2,1.4-3.9,1.4c-1.6,0-2.8-0.4-3.6-1.1c-0.8-0.7-1.2-1.8-1.2-3.2v-0.6
			c0-2.1,0.5-3.6,1.4-4.5c0.9-1,2.3-1.5,4-1.4c1.7,0,2.9,0.5,3.8,1.2c0.8,0.8,1.2,1.8,1.1,3.3C101.3,110.1,101.3,110.3,101.3,110.5z
			 M110.1,111.5c-0.8,0.5-1.7,0.7-2.8,0.6c-0.5,0-0.9-0.1-1.4-0.1c-0.1,1.1-0.2,2.3-0.2,3.4c0.5,0.1,1.1,0.3,1.7,0.4
			c-0.1,0.3-0.1,0.6-0.2,0.9c-1.6-0.1-3.2-0.2-4.8-0.3c0-0.3-0.1-0.6-0.1-0.9c0.4-0.1,0.8-0.1,1.2-0.2c0.2-2.7,0.3-5.5,0.5-8.2
			c-0.4-0.1-0.8-0.2-1.2-0.3c0.1-0.3,0.1-0.6,0.2-0.9c1.6,0.1,3.2,0.2,4.8,0.3c1.4,0.1,2.4,0.4,3,1c0.6,0.5,0.9,1.3,0.8,2.2
			C111.3,110.2,110.8,111,110.1,111.5z M121.1,114c-0.2,1.5-0.7,2.5-1.5,3.2c-0.8,0.6-2,0.8-3.4,0.7c-1.5-0.2-2.6-0.6-3.2-1.4
			c-0.6-0.7-0.9-1.8-0.8-3.1c0.2-1.8,0.4-3.7,0.5-5.5c-0.4-0.1-0.8-0.3-1.2-0.4c0.1-0.3,0.2-0.6,0.3-0.9c1.5,0.1,3,0.3,4.5,0.5
			c0,0.3,0,0.6,0,0.9c-0.4,0-0.8,0.1-1.2,0.1c-0.2,1.7-0.4,3.4-0.6,5.1c-0.1,1.1,0,1.9,0.4,2.5s0.9,0.9,1.7,1c0.4,0,0.8,0,1.1,0
			c0.3,0,0.6-0.1,0.8-0.2c0.2-0.3,0.4-0.7,0.6-1.1c0.2-0.5,0.3-0.9,0.4-1.4c0.2-1.8,0.5-3.5,0.7-5.3c-0.4-0.1-0.8-0.3-1.1-0.4
			c0.1-0.3,0.2-0.6,0.3-0.9c1.2,0.2,2.4,0.3,3.6,0.5c0,0.3,0,0.6,0,0.9c-0.4,0-0.8,0.1-1.2,0.1C121.6,110.6,121.4,112.3,121.1,114z
			 M122.4,118.4c0-0.3,0-0.6,0-0.9c0.4,0,0.8-0.1,1.2-0.1c0.4-2.7,0.8-5.4,1.3-8.1c-0.4-0.2-0.8-0.3-1.1-0.5
			c0.1-0.3,0.2-0.6,0.3-0.9c1.5,0.2,3,0.5,4.5,0.7c0,0.3,0,0.6,0,0.9c-0.4,0-0.8,0-1.2,0.1c-0.4,2.7-0.9,5.4-1.3,8.1
			c0.7,0.1,1.4,0.2,2.1,0.4c0.3-0.5,0.6-0.9,0.9-1.4c0.4,0.1,0.8,0.3,1.2,0.4c-0.2,0.8-0.4,1.6-0.7,2.4
			C127.1,119.2,124.7,118.8,122.4,118.4z M139.9,121.9c-1.3-0.3-2.5-0.6-3.8-0.9c0-0.3,0-0.6,0-0.9c0.4,0,0.7,0,1.1,0
			c-0.1-0.7-0.2-1.3-0.2-2c-1.2-0.3-2.4-0.5-3.6-0.8c-0.3,0.6-0.7,1.1-1,1.7l1,0.4c-0.1,0.3-0.2,0.6-0.3,0.9c-1-0.2-2-0.4-3-0.6
			c0-0.3,0-0.6,0-0.9c0.3,0,0.6,0,0.8-0.1c1.7-2.9,3.5-5.7,5.3-8.5c0.7,0.2,1.4,0.3,2.1,0.5c0.5,3.3,0.9,6.6,1.3,10
			c0.2,0.1,0.5,0.3,0.7,0.4C140.1,121.3,140,121.6,139.9,121.9z M147.1,123.7c-0.4-1.7-0.8-3.4-1.2-5.1c-0.3-0.1-0.6-0.1-0.9-0.2
			c-0.3,1.1-0.6,2.2-0.9,3.3c0.3,0.2,0.7,0.4,1,0.5c-0.1,0.3-0.3,0.6-0.4,0.9c-1.4-0.4-2.8-0.7-4.2-1.1c0-0.3,0.1-0.6,0.1-0.9
			c0.4,0,0.8,0,1.2,0c0.7-2.6,1.3-5.3,2-8c-0.4-0.2-0.7-0.4-1.1-0.5c0.1-0.3,0.3-0.6,0.4-0.8c1.5,0.4,3,0.8,4.5,1.2
			c1.2,0.3,2.1,0.8,2.6,1.5s0.7,1.4,0.4,2.3c-0.2,0.6-0.5,1.1-0.9,1.4s-1,0.6-1.6,0.7L148,119c0.3,1.4,0.7,2.7,1,4.1
			c0.3,0.2,0.6,0.3,0.9,0.5c-0.1,0.3-0.3,0.6-0.4,0.8C148.6,124.2,147.8,123.9,147.1,123.7z M159,134.7c-3.7-2.1-5.6-3.1-9.4-5
			c4,0.9,5.9,1.5,9.9,2.6L159,134.7z M160.3,128.5C160.3,128.5,160.3,128.6,160.3,128.5L160.3,128.5
			C160.3,128.6,160.3,128.6,160.3,128.5c-3.8-2.1-5.7-3.1-9.6-5c4,1,6.1,1.5,10.1,2.7C160.6,127.2,160.5,127.6,160.3,128.5z
			 M161.7,122.4L161.7,122.4L161.7,122.4c-3.9-2.2-5.8-3.2-9.8-5.1c4.1,1,6.2,1.5,10.3,2.8C162,121.1,161.9,121.5,161.7,122.4
			L161.7,122.4z M153.1,111.1L153.1,111.1c4.2,1,6.3,1.6,10.5,2.8c-0.2,0.9-0.3,1.4-0.5,2.3C159.1,114.1,157.1,113.1,153.1,111.1z
			 M148,114.6c-0.3-0.3-0.7-0.6-1.4-0.8c-0.1,0-0.3-0.1-0.4-0.1c-0.3,1.2-0.6,2.3-0.9,3.5c0.2,0,0.4,0.1,0.6,0.2
			c0.4,0.1,0.7,0.2,1,0.2s0.5,0,0.7,0c0.1-0.2,0.2-0.4,0.3-0.7c0.1-0.3,0.2-0.5,0.3-0.8C148.3,115.5,148.3,115,148,114.6z
			 M136.2,112.8c-0.7,1.1-1.4,2.3-2.1,3.5c0.9,0.2,1.9,0.4,2.8,0.6c-0.2-1.3-0.3-2.7-0.5-4C136.2,112.8,136.2,112.8,136.2,112.8z
			 M106.9,107.3c-0.2,0-0.4,0-0.7,0c-0.1,1.2-0.2,2.4-0.3,3.6c0.3,0,0.6,0,0.9,0.1c0.3,0,0.6,0,0.9,0s0.5-0.1,0.7-0.1
			c0.1-0.2,0.2-0.4,0.2-0.7c0.1-0.3,0.1-0.5,0.1-0.8c0.1-0.6-0.1-1.1-0.4-1.4C108.1,107.5,107.6,107.3,106.9,107.3z M96.1,106.6
			c-0.4,0-0.8,0-1.2,0.1c-0.4,0.1-0.7,0.2-0.9,0.4c-0.1,0.3-0.2,0.8-0.3,1.5s-0.2,1.3-0.2,2c0,0.3,0,0.7,0,1c0,1.1,0.2,1.9,0.8,2.6
			c0.5,0.6,1.2,0.9,2,1c0.4,0,0.8,0,1.2-0.1c0.4-0.1,0.6-0.2,0.8-0.3c0.1-0.4,0.3-0.9,0.4-1.6s0.2-1.3,0.2-2c0-0.3,0-0.7,0-1
			c0-1.1-0.2-2-0.6-2.6C97.8,106.9,97.1,106.6,96.1,106.6z M85.6,106.8c-0.2,0-0.4,0-0.7,0c0,1.2,0.1,2.4,0.1,3.6h0.9
			c0.3,0,0.6,0,0.9-0.1c0.3,0,0.5-0.1,0.7-0.2c0.1-0.2,0.1-0.5,0.2-0.7c0-0.3,0-0.6,0-0.8c0-0.6-0.2-1.1-0.6-1.4
			C86.9,106.9,86.3,106.7,85.6,106.8z M54.8,114.1c-0.1-0.3-0.1-0.7-0.2-1c-0.2-1.1-0.6-1.9-1.2-2.4c-0.6-0.5-1.3-0.7-2.3-0.5
			c-0.4,0.1-0.8,0.2-1.1,0.4c-0.3,0.2-0.6,0.4-0.8,0.5c0,0.3,0,0.9,0,1.5c0,0.7,0.1,1.4,0.2,2c0.1,0.3,0.1,0.7,0.2,1
			c0.2,1.1,0.6,1.9,1.3,2.3c0.6,0.5,1.3,0.7,2.2,0.5c0.4-0.1,0.8-0.2,1.1-0.4c0.3-0.2,0.6-0.3,0.7-0.5c0-0.4,0.1-1,0-1.6
			C55,115.4,54.9,114.7,54.8,114.1z M87.3,107.2c-0.4-0.3-0.9-0.4-1.6-0.4c-0.2,0-0.4,0-0.7,0c0,1.2,0.1,2.4,0.1,3.6H86
			c0.3,0,0.6,0,0.9-0.1c0.3,0,0.5-0.1,0.7-0.2c0.1-0.2,0.1-0.5,0.2-0.7c0-0.3,0-0.6,0-0.8C87.8,107.9,87.6,107.5,87.3,107.2z
			 M98.3,107.5c-0.5-0.6-1.2-0.9-2.1-0.9c-0.4,0-0.8,0-1.2,0.1c-0.4,0.1-0.7,0.2-0.9,0.4c-0.1,0.3-0.2,0.8-0.3,1.5s-0.2,1.3-0.2,2
			c0,0.3,0,0.7,0,1c0,1.1,0.2,1.9,0.8,2.6c0.5,0.6,1.2,0.9,2,1c0.4,0,0.8,0,1.2-0.1c0.4-0.1,0.6-0.2,0.8-0.3
			c0.1-0.4,0.3-0.9,0.4-1.6s0.2-1.3,0.2-2c0-0.3,0-0.7,0-1C98.9,109,98.7,108.1,98.3,107.5z M108.4,107.8c-0.3-0.3-0.9-0.5-1.6-0.6
			c-0.2,0-0.4,0-0.7,0c-0.1,1.2-0.2,2.4-0.3,3.6c0.3,0,0.6,0,0.9,0.1c0.3,0,0.6,0,0.9,0s0.5-0.1,0.7-0.1c0.1-0.2,0.2-0.4,0.2-0.7
			c0.1-0.3,0.1-0.5,0.1-0.8C108.9,108.6,108.8,108.2,108.4,107.8z M136.3,112.8h-0.1c-0.7,1.1-1.4,2.3-2.1,3.5
			c0.9,0.2,1.9,0.4,2.8,0.6C136.6,115.5,136.5,114.2,136.3,112.8z M148,114.6c-0.3-0.3-0.7-0.6-1.4-0.8c-0.1,0-0.3-0.1-0.4-0.1
			c-0.3,1.2-0.6,2.3-0.9,3.5c0.2,0,0.4,0.1,0.6,0.2c0.4,0.1,0.7,0.2,1,0.2s0.5,0,0.7,0c0.1-0.2,0.2-0.4,0.3-0.7
			c0.1-0.3,0.2-0.5,0.3-0.8C148.3,115.5,148.3,115,148,114.6z M148,114.6c-0.3-0.3-0.7-0.6-1.4-0.8c-0.1,0-0.3-0.1-0.4-0.1
			c-0.3,1.2-0.6,2.3-0.9,3.5c0.2,0,0.4,0.1,0.6,0.2c0.4,0.1,0.7,0.2,1,0.2s0.5,0,0.7,0c0.1-0.2,0.2-0.4,0.3-0.7
			c0.1-0.3,0.2-0.5,0.3-0.8C148.3,115.5,148.3,115,148,114.6z M136.3,112.8h-0.1c-0.7,1.1-1.4,2.3-2.1,3.5c0.9,0.2,1.9,0.4,2.8,0.6
			C136.6,115.5,136.5,114.2,136.3,112.8z M108.4,107.8c-0.3-0.3-0.9-0.5-1.6-0.6c-0.2,0-0.4,0-0.7,0c-0.1,1.2-0.2,2.4-0.3,3.6
			c0.3,0,0.6,0,0.9,0.1c0.3,0,0.6,0,0.9,0s0.5-0.1,0.7-0.1c0.1-0.2,0.2-0.4,0.2-0.7c0.1-0.3,0.1-0.5,0.1-0.8
			C108.9,108.6,108.8,108.2,108.4,107.8z M98.3,107.5c-0.5-0.6-1.2-0.9-2.1-0.9c-0.4,0-0.8,0-1.2,0.1c-0.4,0.1-0.7,0.2-0.9,0.4
			c-0.1,0.3-0.2,0.8-0.3,1.5s-0.2,1.3-0.2,2c0,0.3,0,0.7,0,1c0,1.1,0.2,1.9,0.8,2.6c0.5,0.6,1.2,0.9,2,1c0.4,0,0.8,0,1.2-0.1
			c0.4-0.1,0.6-0.2,0.8-0.3c0.1-0.4,0.3-0.9,0.4-1.6s0.2-1.3,0.2-2c0-0.3,0-0.7,0-1C98.9,109,98.7,108.1,98.3,107.5z M87.3,107.2
			c-0.4-0.3-0.9-0.4-1.6-0.4c-0.2,0-0.4,0-0.7,0c0,1.2,0.1,2.4,0.1,3.6H86c0.3,0,0.6,0,0.9-0.1c0.3,0,0.5-0.1,0.7-0.2
			c0.1-0.2,0.1-0.5,0.2-0.7c0-0.3,0-0.6,0-0.8C87.8,107.9,87.6,107.5,87.3,107.2z M87.3,107.2c-0.4-0.3-0.9-0.4-1.6-0.4
			c-0.2,0-0.4,0-0.7,0c0,1.2,0.1,2.4,0.1,3.6H86c0.3,0,0.6,0,0.9-0.1c0.3,0,0.5-0.1,0.7-0.2c0.1-0.2,0.1-0.5,0.2-0.7
			c0-0.3,0-0.6,0-0.8C87.8,107.9,87.6,107.5,87.3,107.2z M98.3,107.5c-0.5-0.6-1.2-0.9-2.1-0.9c-0.4,0-0.8,0-1.2,0.1
			c-0.4,0.1-0.7,0.2-0.9,0.4c-0.1,0.3-0.2,0.8-0.3,1.5s-0.2,1.3-0.2,2c0,0.3,0,0.7,0,1c0,1.1,0.2,1.9,0.8,2.6c0.5,0.6,1.2,0.9,2,1
			c0.4,0,0.8,0,1.2-0.1c0.4-0.1,0.6-0.2,0.8-0.3c0.1-0.4,0.3-0.9,0.4-1.6s0.2-1.3,0.2-2c0-0.3,0-0.7,0-1
			C98.9,109,98.7,108.1,98.3,107.5z M108.4,107.8c-0.3-0.3-0.9-0.5-1.6-0.6c-0.2,0-0.4,0-0.7,0c-0.1,1.2-0.2,2.4-0.3,3.6
			c0.3,0,0.6,0,0.9,0.1c0.3,0,0.6,0,0.9,0s0.5-0.1,0.7-0.1c0.1-0.2,0.2-0.4,0.2-0.7c0.1-0.3,0.1-0.5,0.1-0.8
			C108.9,108.6,108.8,108.2,108.4,107.8z M136.3,112.8h-0.1c-0.7,1.1-1.4,2.3-2.1,3.5c0.9,0.2,1.9,0.4,2.8,0.6
			C136.6,115.5,136.5,114.2,136.3,112.8z M148,114.6c-0.3-0.3-0.7-0.6-1.4-0.8c-0.1,0-0.3-0.1-0.4-0.1c-0.3,1.2-0.6,2.3-0.9,3.5
			c0.2,0,0.4,0.1,0.6,0.2c0.4,0.1,0.7,0.2,1,0.2s0.5,0,0.7,0c0.1-0.2,0.2-0.4,0.3-0.7c0.1-0.3,0.2-0.5,0.3-0.8
			C148.3,115.5,148.3,115,148,114.6z M148,114.6c-0.3-0.3-0.7-0.6-1.4-0.8c-0.1,0-0.3-0.1-0.4-0.1c-0.3,1.2-0.6,2.3-0.9,3.5
			c0.2,0,0.4,0.1,0.6,0.2c0.4,0.1,0.7,0.2,1,0.2s0.5,0,0.7,0c0.1-0.2,0.2-0.4,0.3-0.7c0.1-0.3,0.2-0.5,0.3-0.8
			C148.3,115.5,148.3,115,148,114.6z M136.3,112.8h-0.1c-0.7,1.1-1.4,2.3-2.1,3.5c0.9,0.2,1.9,0.4,2.8,0.6
			C136.6,115.5,136.5,114.2,136.3,112.8z M108.4,107.8c-0.3-0.3-0.9-0.5-1.6-0.6c-0.2,0-0.4,0-0.7,0c-0.1,1.2-0.2,2.4-0.3,3.6
			c0.3,0,0.6,0,0.9,0.1c0.3,0,0.6,0,0.9,0s0.5-0.1,0.7-0.1c0.1-0.2,0.2-0.4,0.2-0.7c0.1-0.3,0.1-0.5,0.1-0.8
			C108.9,108.6,108.8,108.2,108.4,107.8z M98.3,107.5c-0.5-0.6-1.2-0.9-2.1-0.9c-0.4,0-0.8,0-1.2,0.1c-0.4,0.1-0.7,0.2-0.9,0.4
			c-0.1,0.3-0.2,0.8-0.3,1.5s-0.2,1.3-0.2,2c0,0.3,0,0.7,0,1c0,1.1,0.2,1.9,0.8,2.6c0.5,0.6,1.2,0.9,2,1c0.4,0,0.8,0,1.2-0.1
			c0.4-0.1,0.6-0.2,0.8-0.3c0.1-0.4,0.3-0.9,0.4-1.6s0.2-1.3,0.2-2c0-0.3,0-0.7,0-1C98.9,109,98.7,108.1,98.3,107.5z M87.3,107.2
			c-0.4-0.3-0.9-0.4-1.6-0.4c-0.2,0-0.4,0-0.7,0c0,1.2,0.1,2.4,0.1,3.6H86c0.3,0,0.6,0,0.9-0.1c0.3,0,0.5-0.1,0.7-0.2
			c0.1-0.2,0.1-0.5,0.2-0.7c0-0.3,0-0.6,0-0.8C87.8,107.9,87.6,107.5,87.3,107.2z M108.4,107.8c-0.3-0.3-0.9-0.5-1.6-0.6
			c-0.2,0-0.4,0-0.7,0c-0.1,1.2-0.2,2.4-0.3,3.6c0.3,0,0.6,0,0.9,0.1c0.3,0,0.6,0,0.9,0s0.5-0.1,0.7-0.1c0.1-0.2,0.2-0.4,0.2-0.7
			c0.1-0.3,0.1-0.5,0.1-0.8C108.9,108.6,108.8,108.2,108.4,107.8z M136.3,112.8h-0.1c-0.7,1.1-1.4,2.3-2.1,3.5
			c0.9,0.2,1.9,0.4,2.8,0.6C136.6,115.5,136.5,114.2,136.3,112.8z M148,114.6c-0.3-0.3-0.7-0.6-1.4-0.8c-0.1,0-0.3-0.1-0.4-0.1
			c-0.3,1.2-0.6,2.3-0.9,3.5c0.2,0,0.4,0.1,0.6,0.2c0.4,0.1,0.7,0.2,1,0.2s0.5,0,0.7,0c0.1-0.2,0.2-0.4,0.3-0.7
			c0.1-0.3,0.2-0.5,0.3-0.8C148.3,115.5,148.3,115,148,114.6z M148,114.6c-0.3-0.3-0.7-0.6-1.4-0.8c-0.1,0-0.3-0.1-0.4-0.1
			c-0.3,1.2-0.6,2.3-0.9,3.5c0.2,0,0.4,0.1,0.6,0.2c0.4,0.1,0.7,0.2,1,0.2s0.5,0,0.7,0c0.1-0.2,0.2-0.4,0.3-0.7
			c0.1-0.3,0.2-0.5,0.3-0.8C148.3,115.5,148.3,115,148,114.6z M136.3,112.8h-0.1c-0.7,1.1-1.4,2.3-2.1,3.5c0.9,0.2,1.9,0.4,2.8,0.6
			C136.6,115.5,136.5,114.2,136.3,112.8z M108.4,107.8c-0.3-0.3-0.9-0.5-1.6-0.6c-0.2,0-0.4,0-0.7,0c-0.1,1.2-0.2,2.4-0.3,3.6
			c0.3,0,0.6,0,0.9,0.1c0.3,0,0.6,0,0.9,0s0.5-0.1,0.7-0.1c0.1-0.2,0.2-0.4,0.2-0.7c0.1-0.3,0.1-0.5,0.1-0.8
			C108.9,108.6,108.8,108.2,108.4,107.8z M136.3,112.8h-0.1c-0.7,1.1-1.4,2.3-2.1,3.5c0.9,0.2,1.9,0.4,2.8,0.6
			C136.6,115.5,136.5,114.2,136.3,112.8z M148,114.6c-0.3-0.3-0.7-0.6-1.4-0.8c-0.1,0-0.3-0.1-0.4-0.1c-0.3,1.2-0.6,2.3-0.9,3.5
			c0.2,0,0.4,0.1,0.6,0.2c0.4,0.1,0.7,0.2,1,0.2s0.5,0,0.7,0c0.1-0.2,0.2-0.4,0.3-0.7c0.1-0.3,0.2-0.5,0.3-0.8
			C148.3,115.5,148.3,115,148,114.6z M148,114.6c-0.3-0.3-0.7-0.6-1.4-0.8c-0.1,0-0.3-0.1-0.4-0.1c-0.3,1.2-0.6,2.3-0.9,3.5
			c0.2,0,0.4,0.1,0.6,0.2c0.4,0.1,0.7,0.2,1,0.2s0.5,0,0.7,0c0.1-0.2,0.2-0.4,0.3-0.7c0.1-0.3,0.2-0.5,0.3-0.8
			C148.3,115.5,148.3,115,148,114.6z M136.3,112.8h-0.1c-0.7,1.1-1.4,2.3-2.1,3.5c0.9,0.2,1.9,0.4,2.8,0.6
			C136.6,115.5,136.5,114.2,136.3,112.8z M148,114.6c-0.3-0.3-0.7-0.6-1.4-0.8c-0.1,0-0.3-0.1-0.4-0.1c-0.3,1.2-0.6,2.3-0.9,3.5
			c0.2,0,0.4,0.1,0.6,0.2c0.4,0.1,0.7,0.2,1,0.2s0.5,0,0.7,0c0.1-0.2,0.2-0.4,0.3-0.7c0.1-0.3,0.2-0.5,0.3-0.8
			C148.3,115.5,148.3,115,148,114.6z M148,114.6c-0.3-0.3-0.7-0.6-1.4-0.8c-0.1,0-0.3-0.1-0.4-0.1c-0.3,1.2-0.6,2.3-0.9,3.5
			c0.2,0,0.4,0.1,0.6,0.2c0.4,0.1,0.7,0.2,1,0.2s0.5,0,0.7,0c0.1-0.2,0.2-0.4,0.3-0.7c0.1-0.3,0.2-0.5,0.3-0.8
			C148.3,115.5,148.3,115,148,114.6z"/>
		<path class="st0" d="M182.8,132.6c-5.7-3.3-11.5-6.3-17.5-9c-1.3,5.4-2.6,10.9-3.8,16.3c-4,2.1-8,4.3-11.9,6.6
			c8.7,3.5,17.3,7.6,25.5,12.2c-1.2-5.8-2.5-11.5-3.9-17.3C174.9,138.4,178.8,135.4,182.8,132.6z"/>
		<path class="st0" d="M159.3,139.1c-3.1-1.3-4.6-2-7.7-3.1l-1.6,8C153.7,141.9,155.6,140.9,159.3,139.1z"/>
		<path class="st0" d="M0,132.6c5.7-3.3,11.5-6.3,17.5-9c1.3,5.4,2.6,10.9,3.8,16.3c4,2.1,8,4.3,11.9,6.6
			c-8.7,3.5-17.2,7.6-25.4,12.2c1.2-5.8,2.5-11.5,3.9-17.3C7.9,138.4,4,135.4,0,132.6z"/>
		<path class="st0" d="M23.4,139.1c3.1-1.3,4.6-2,7.7-3.1c0.6,3.2,1,4.8,1.6,8C29.1,141.9,27.2,140.9,23.4,139.1z"/>
		<path class="st0" d="M144,96.6l-10.1-7.2l20.6,6.2L135.8,85l21.1,4.1l-19.7-8.7l21.4,1.9l-20.5-6.6l21.5-0.3l-21-4.5l21.3-2.4
			l-21.4-2.4l21-4.5L138,61.3l20.4-6.6L137,56.6l19.7-8.7L135.6,52l18.7-10.6l-20.6,6.2l17.5-12.5l-19.8,8.3l16.2-14.2l-18.9,10.3
			l14.6-15.7l-17.8,12.1l13-17.1L122,32.6l11.2-18.4l-15,15.4l9.3-19.4L114.2,27l7.3-20.2L110,25l5.2-20.9l-9.7,19.2l3-21.3
			l-7.7,20.1l0.9-21.5l-5.6,20.8L94.8,0l-3.5,21.2L87.9,0l-1.3,21.5L81,0.7l0.8,21.5L74.2,2.1l3,21.3L67.5,4.2L72.7,25L61.1,6.9
			l7.3,20.2L55.1,10.3l9.3,19.4l-15-15.4l11.2,18.4L44.1,18.8l13,17.1L39.3,23.8l14.6,15.8L35,29.3l16.2,14.2l-19.8-8.3l17.5,12.5
			l-20.6-6.2L47,52.1L25.9,48l19.7,8.7l-21.4-1.9l20.4,6.6l-21.5,0.3l21,4.5l-21.4,2.4L44.1,71l-21,4.5l21.5,0.3l-20.5,6.6l21.4-1.9
			l-19.7,8.7L47,85L28.3,95.6l20.6-6.2l-10.1,7.2c-8,2.6-15.6,6.3-22.6,11c23.8-10,49.4-15.2,75.3-15.3c25.9,0.1,51.4,5.3,75.3,15.4
			C159.6,102.9,152,99.2,144,96.6z M91.4,88.6L91.4,88.6c-12.6,0-25.1,1.3-37.4,3.8c-13.2-20.6-7.1-48,13.5-61.2s48-7.1,61.2,13.5
			c9.3,14.5,9.3,33.2,0,47.7C116.4,89.8,103.9,88.5,91.4,88.6z"/>
		<path class="st0" d="M99.6,41.4c-0.9-0.9-1.9-1.6-3-2.2l-0.1-0.1c-1.1-0.6-2.2-1.2-3.4-1.7l0,0l-1.7-0.7l0,0
			c-0.8-0.3-1.7-0.6-2.6-1c-7.2-2.5-10.8-2.4-12.1-2.3c-0.6,0.1-1,0.5-1.1,1.1c-0.1,0.7-0.4,1.9-0.8,3.5c-0.1,0.5-0.2,0.9-0.4,1.5
			l-4.8-2.3c-0.8-0.4-1.8-0.6-2.8-0.3c-0.8,0.4-1.4,0.9-2.2,3l-2.2,6c-1,2.8-5.8,14.1-5.9,16.6c0,0.2,0,0.5,0,0.7
			c0,0.5,0.2,0.9,0.4,1.4c0.2,0.4,0.4,0.8,0.7,1.2c0.1,0.1,0.1,0.2,0.2,0.3c0.1,0.1,0.2,0.2,0.3,0.3l0.5,0.4l0.9,0.7
			c0.6,0.5,1.2,0.9,1.8,1.4l1.2,0.9c-1.2,2.3-2.1,4-2.5,4.6c-0.2,0.4-0.2,0.9,0,1.3c0.9,1.3,2.2,2.4,3.6,3.2l0.1,0.1
			c2.7,1.5,5.6,2.7,8.5,3.7c3.2,1.2,6.6,2,10,2.5c1.4,0.2,2.8,0.1,4.1-0.2c0.5-0.2,0.9-0.6,0.9-1.2c0.2-2.4,0.7-4.7,1.3-7
			c0.8-3.3,1.8-7.5,2.9-11.4c0-0.1,0-0.1,0.1-0.2c0.2-0.7,0.4-1.4,0.6-2.1c0-0.1,0-0.1,0.1-0.2c0.5-1.6,1-3.1,1.4-4.5
			c0.3-0.9,0.6-1.8,0.9-2.6l0,0c0,0,0-0.1,0.1-0.1c0.4-1,0.7-2,1.1-2.9c0.1-0.2,0.2-0.5,0.3-0.7l0.1-0.3l0,0l0.1-0.2
			c0.4-1.1,0.8-2,1.2-2.9c0,0,0,0,0-0.1c0.4-0.9,0.6-1.5,0.9-2l0.1-0.3c0-0.1,0.1-0.2,0.1-0.3c0.5-1,0.9-1.9,1.2-2.5c0,0,0,0,0-0.1
			l0.2-0.4C100.2,42.4,100,41.8,99.6,41.4z M92.3,57.9c-1.9,5.5-3.9,13.1-5.1,18.5c-0.6,2.4-1,4.7-1.3,7.2c-0.7,0.2-1.4,0.3-2.1,0.3
			c-0.5,0-0.9,0-1.4-0.1c-3.3-0.5-6.6-1.3-9.7-2.5c-2.9-1-5.6-2.1-8.3-3.6l-0.1-0.1c-2.2-1.3-2.9-2.2-3.1-2.7
			c0.2-0.4,0.7-1.2,1.3-2.3c0.6-1.1,1.4-2.6,2.2-4.2L64,67.7L63.1,67c0,0-2.3-2.4-2.9-3.1c-0.4-0.4-1.1-1.1-0.3-3
			c1.6-4,6.1-14,6.7-15.3c-1.2,3.4-5.1,13.9-5.7,15.5c-0.2,0.5-0.2,1-0.1,1.5c0.1,0.5,0.9,1,1.2,1.2c0.6,0.5,3.6,2.4,3.6,2.4
			l0.2-0.4c0.2-0.4,5-10.6,6.6-15.3c1-3,1.8-5.5,2.5-7.7l-4.1-2l-1.3-0.6c-0.5-0.3-1-0.5-1.6-0.6c-0.9-0.2-1.8,0.3-2,1.1
			c0.1-0.9,0.7-1.7,1.6-2c0.7-0.1,1.4,0.1,2,0.4c0,0,3.6,1.7,5.6,2.6c0.4-1.4,0.7-2.5,0.9-3.5c0.4-1.7,0.7-2.9,0.8-3.6
			c0.3,0,0.6-0.1,1.1-0.1c1.7,0,5,0.4,10.4,2.2c2.6,0.9,5.1,2,7.5,3.3l0.1,0.1c1,0.5,1.9,1.2,2.8,2c-0.3,0.8-1,2-1.7,3.7
			C95.8,48.4,94.2,52.4,92.3,57.9z M66.6,49.4c0.4-1,0.7-2,1.1-3l0.6-1.5l0.1-0.4l0.1-0.2c0,0,0-0.1,0.1-0.1
			c0.1-0.2,0.2-0.3,0.3-0.5c0.1-0.1,0.2-0.2,0.3-0.3c0.1,0,0.2,0,0.3,0h0.1l0.2,0.1l0.7,0.4l2.3,1.1c-0.5,1.5-1,3.3-1.7,5.1
			c-1.3,3.7-4.7,11.3-6,14.1L64.6,64l-1.3-0.8L63,63l-0.2-0.1h-0.1c-0.2-0.1-0.3-0.2-0.4-0.4c-0.1-0.1-0.1-0.3-0.2-0.4
			c0-0.1,0-0.1,0-0.2v-0.1C63.7,57.5,65.2,53.4,66.6,49.4z"/>
		<path class="st0" d="M90.2,44.6c-0.3-0.2-0.7,0-0.9,0.3l0,0c-0.2,0.3-0.2,0.7,0.1,1c0,0,0,0,0.1,0c0.3,0.2,0.8,0.1,1-0.2l0,0
			c0.1-0.2,0.1-0.4,0.1-0.6C90.5,44.9,90.3,44.7,90.2,44.6z"/>
		<path class="st0" d="M91.9,41.3c-1.1,0-2.1,0.3-3.1,0.9c-0.3-0.8-1.1-1.2-1.9-1c-0.2,0.1-0.4,0.2-0.5,0.3
			c-0.3,0.3-0.5,0.7-0.5,1.1c0,0.3,0.1,0.5,0.2,0.8h-4.9c0-0.1,0-0.2,0-0.3c0-0.3-0.2-0.7-0.5-0.9c-0.2-0.1-0.5-0.2-0.7-0.1
			c0.1-0.9-0.6-1.7-1.5-1.7c-0.6,0-1.2,0.2-1.5,0.7h-0.9C76,41.4,74,48.4,74,48.4l13.6,0.1c-1.8,5.9-3.4,10.6-4.6,14.4
			c-3.7,12.6-1,15.7-1,15.7c-0.1-4.9,7.5-27,8.5-30.1h4.1c0,0,2-4.5,2.4-5.3C95.8,41.9,93.8,41.2,91.9,41.3z M87.4,43.8
			c-0.3,0-0.6-0.2-0.7-0.4c-0.1-0.1-0.2-0.2-0.2-0.4v-0.3c0-0.6,0.4-1.1,0.9-1.1c0.3,0,0.6,0.1,0.8,0.3c0.1,0.1,0.1,0.1,0.2,0.2
			c0.1,0.1,0.1,0.2,0.1,0.3s0.1,0.2,0.1,0.4c0,0.3-0.1,0.6-0.4,0.8C88,43.8,87.7,43.9,87.4,43.8z M90.9,45.8L90.9,45.8
			c-0.3,0.6-1.1,0.8-1.7,0.5h-0.1c-0.6-0.4-0.8-1.1-0.5-1.8c0.2-0.3,0.5-0.5,0.9-0.6c0.3-0.1,0.6,0,0.9,0.2h0.1
			C91,44.5,91.2,45.2,90.9,45.8z"/>
		<path class="st0" d="M98.1,46.5c-0.3,0.6-0.6,1.3-0.9,2l11.5-0.1c0,0-2-7-2.1-7.3h-0.9c-0.5-0.7-1.5-1-2.2-0.5
			c-0.5,0.3-0.8,0.9-0.7,1.5c-0.2-0.1-0.5,0-0.7,0.1c-0.4,0.2-0.6,0.7-0.4,1.2l0,0l0,0h-2C99.2,44.1,98.7,45.2,98.1,46.5z"/>
		<path class="st0" d="M99.6,62.9c-0.9-3.2-2.2-6.9-3.6-11.4c-0.5,1.2-1,2.6-1.5,4c2.6,7.9,6.2,19.7,6.2,23.1
			C100.7,78.7,103.3,75.6,99.6,62.9z"/>
		<path class="st0" d="M113.2,43.4L113.2,43.4L113.2,43.4z"/>
		<path class="st0" d="M120.4,46l-2.2-6c-0.8-2-1.4-2.6-2.2-3c-1.1-0.5-2.8,0.3-2.8,0.3l-4.8,2.3c-0.2-0.7-0.3-1-0.4-1.5
			c-0.4-1.7-0.7-2.8-0.8-3.5c-0.1-0.6-0.6-1-1.1-1.1c-1.2-0.2-4.9-0.3-12.1,2.3c-0.9,0.3-1.8,0.6-2.6,1l0,0l1.7,0.7l0,0l1.3-0.5
			c6.9-2.4,10.3-2.3,11.5-2.2c0.1,0.7,0.4,1.9,0.8,3.6c0.2,0.9,0.6,2.1,0.9,3.5c2-0.9,5.6-2.6,5.6-2.6c0.6-0.3,1.4-0.5,2.1-0.4
			c0.9,0.3,1.5,1.1,1.6,2c-0.3-0.9-1.1-1.4-2-1.1c-0.6,0.1-1.1,0.3-1.6,0.6L112,41l-4.1,2c0.6,2.1,1.4,4.7,2.5,7.7
			c1.6,4.6,6.4,14.9,6.6,15.3l0.2,0.4c0,0,3-1.9,3.6-2.4c0.3-0.3,1-0.8,1.2-1.2c0.1-0.5,0.1-1-0.1-1.5c-0.5-1.6-4.4-12.1-5.7-15.5
			c0.6,1.3,5,11.3,6.7,15.3c0.8,1.8,0,2.6-0.3,3c-0.6,0.7-2.9,3.1-2.9,3.1l-0.8,0.8l-0.7,0.7c1.6,3.3,3,5.8,3.4,6.5
			c-0.1,0.2-0.3,0.5-0.8,1s-1.2,1-2.3,1.6l-0.1,0.1c-2.6,1.5-5.4,2.7-8.3,3.6c-3.1,1.2-6.4,2-9.7,2.5c-1.2,0.2-2.4,0.1-3.5-0.2
			c-0.3-2.4-0.7-4.8-1.3-7.2c-0.9-4-2.2-9-3.5-13.6v-0.1c-0.2,0.8-0.5,1.5-0.7,2.3v0.1c0.5,2,1.1,4,1.6,5.9c0.5,2,1,3.9,1.4,5.6
			c0.6,2.3,1,4.6,1.3,7c0,0.5,0.4,1,0.9,1.2c1.3,0.4,2.7,0.4,4.1,0.2c3.4-0.5,6.8-1.3,10-2.5c2.9-1,5.8-2.2,8.5-3.7l0.1-0.1
			c1.5-0.7,2.7-1.8,3.6-3.2c0.2-0.4,0.2-0.9,0-1.3c-0.3-0.6-1.3-2.3-2.5-4.6l1.2-0.9c0.6-0.4,1.2-0.9,1.8-1.4l0.9-0.7l0.5-0.4
			l0.3-0.3l0.2-0.3c0.3-0.4,0.5-0.7,0.7-1.2c0.2-0.4,0.3-0.9,0.4-1.4c0-0.2,0-0.5,0-0.7C126.1,60.1,121.4,48.8,120.4,46z
			 M120.5,61.5L120.5,61.5c0,0.3,0,0.6-0.2,0.7c-0.1,0.1-0.3,0.3-0.4,0.4h-0.1l-0.2,0.1l-0.3,0.2l-1.3,0.8l-0.4,0.3
			c-1.3-2.8-4.7-10.4-6-14.1c-0.7-1.9-1.2-3.6-1.7-5.1l2.2-1.1l0.7-0.4l0.2-0.1h0.1c0.1,0,0.2,0,0.3,0c0.1,0.1,0.2,0.1,0.3,0.3
			c0.1,0.1,0.2,0.3,0.3,0.5l0.1,0.1l0.1,0.2l0.1,0.4l0.6,1.5l1.1,3C117.6,53.4,119,57.5,120.5,61.5z"/>
	</g>
</g>
</svg>
