<svg xmlns="http://www.w3.org/2000/svg" viewBox="0 0 128.85 177.73"><defs><style>.cls-1{fill:#f6a91f;}.cls-2{font-size:56.2px;fill:#fff;font-family:FFFTusj-Bold, FFF Tusj;font-weight:700;}</style></defs><g id="Layer_2" data-name="Layer 2"><g id="Layer_1-2" data-name="Layer 1"><path class="cls-1" d="M128.52,121.7A61.44,61.44,0,0,1,118.89,148c-5.45,8.49-12.22,15.71-21,20.7-9.11,5.19-18.83,9-29.25,8.93-27,1.51-47.33-9.86-60.54-32.37C-1.65,128.53-2.49,110.4,5,92c7.72-19,18.6-36.1,29.72-53.17C42.94,26.16,52.28,14.4,61.13,2.24c2.19-3,3.82-2.95,6.09,0,10,13,20.18,25.88,29,39.81,6.8,10.8,14,21.38,19.67,32.76C123.21,89.52,130.52,104.5,128.52,121.7Z"/><text class="cls-2" transform="translate(8.35 133.76)">12%</text></g></g></svg>