<svg id="Capa_1" data-name="Capa 1" xmlns="http://www.w3.org/2000/svg" viewBox="0 0 336 480"><defs><style>.cls-1{fill:#eca702;}</style></defs><path class="cls-1" d="M408,8.57V471.43a9.84,9.84,0,0,1-.22,1.08,9,9,0,0,1-.32,1.72,8.54,8.54,0,0,1-.8,1.6,9.45,9.45,0,0,1-.46,1c-.09.11-.22.17-.32.29a7.38,7.38,0,0,1-1.29,1.15,8.37,8.37,0,0,1-1.19.86,7.21,7.21,0,0,1-1.38.46,6.62,6.62,0,0,1-1.6.35,3.2,3.2,0,0,1-.42.1,8.85,8.85,0,0,1-1-.17,6.73,6.73,0,0,1-1.6-.35,8,8,0,0,1-1.5-.86,8.64,8.64,0,0,1-.89-.49l-35-30-35,30a7.6,7.6,0,0,1-10,0l-35-30-35,30a7.6,7.6,0,0,1-10,0l-35-30-35.05,30a7.61,7.61,0,0,1-10,0l-35-30-35,30a6.18,6.18,0,0,1-.91.5,6.87,6.87,0,0,1-1.46.85,8.81,8.81,0,0,1-1.6.36,8.45,8.45,0,0,1-1,.21c-.15,0-.28-.08-.44-.08a8,8,0,0,1-1.6-.35,9,9,0,0,1-1.41-.48,8.19,8.19,0,0,1-1.17-.86,7.62,7.62,0,0,1-1.3-1.18,2.88,2.88,0,0,1-.33-.28,7.71,7.71,0,0,1-.46-1,6.79,6.79,0,0,1-1.09-3.3,10.23,10.23,0,0,1-.2-1.08V8.57A8.3,8.3,0,0,1,80,0H400A8.3,8.3,0,0,1,408,8.57Z" transform="translate(-72)"/></svg>