<svg xmlns="http://www.w3.org/2000/svg" viewBox="0 0 355.58 335.25"><defs><style>.cls-1{fill:#eca702;}</style></defs><g id="Layer_2" data-name="Layer 2"><g id="Capa_1" data-name="Capa 1"><path class="cls-1" d="M355.58,5.85v329.3a6.61,6.61,0,0,1-4.19-1.49l0,0a4.69,4.69,0,0,0-.47-.43l-.08-.08a13.67,13.67,0,0,0-17.24-.45h0a12.58,12.58,0,0,0-1.66,1.52h0a6.68,6.68,0,0,1-3.57,1,6.57,6.57,0,0,1-4.15-1.46h0a6,6,0,0,0-.54-.48l-.07-.07a13.61,13.61,0,0,0-17.84-.12l0,0a7.32,7.32,0,0,0-.66.59l0,0a6.55,6.55,0,0,1-4.07,1.4,6.66,6.66,0,0,1-4.24-1.52l-.3-.27a13.65,13.65,0,0,0-17.86-.4l0,0a10.89,10.89,0,0,0-1,.92,6.52,6.52,0,0,1-4,1.33,6.63,6.63,0,0,1-3.7-1.13h0l-.29-.31s0,0,0,0c-.25-.25-.52-.5-.79-.72a.07.07,0,0,1,0,0l-.29-.23a13.64,13.64,0,0,0-17.09.12l0,0-.32.27c-.15.15-.3.29-.47.43a6.64,6.64,0,0,1-8.41,0,5.66,5.66,0,0,0-.52-.47l0,0a13.65,13.65,0,0,0-17.5-.31l-.42.35h0c-.15.13-.3.26-.45.41h0a6.63,6.63,0,0,1-8.34.09,8.17,8.17,0,0,0-.7-.62,13.66,13.66,0,0,0-16.9-.66l0,0a9.37,9.37,0,0,0-.85.68c-.2.17-.4.35-.59.54a6.69,6.69,0,0,1-4.17,1.47,6.62,6.62,0,0,1-4.21-1.5l0,0a4.69,4.69,0,0,0-.47-.43v0a13.65,13.65,0,0,0-17.16-.61h0l-.31.24a13.13,13.13,0,0,0-1.35,1.23l0,0a6.72,6.72,0,0,1-3.72,1.13,6.6,6.6,0,0,1-4.19-1.48l0,0a3.74,3.74,0,0,0-.47-.43l0-.05a13.66,13.66,0,0,0-17.6-.31h0l-.3.26,0,0a4.69,4.69,0,0,0-.47.43l0,0a6.65,6.65,0,0,1-8.35,0,7.82,7.82,0,0,0-.6-.55,13.65,13.65,0,0,0-17.89.06c-.15.15-.31.29-.47.43a6.65,6.65,0,0,1-8.4.05l0,0c-.17-.16-.34-.32-.52-.46l-.06-.06a13.64,13.64,0,0,0-17.85,0,7.81,7.81,0,0,0-.67.62,6.67,6.67,0,0,1-7.81.32l-.24-.25s0,0,0,0c-.32-.32-.65-.62-1-.91l0,0-.18-.14a13.64,13.64,0,0,0-17.4.42,7.13,7.13,0,0,0-.58.53,6.68,6.68,0,0,1-4.19,1.48,6.57,6.57,0,0,1-3.9-1.27l-.11-.12s0,0,0,0c-.25-.25-.52-.5-.79-.72a.07.07,0,0,1,0,0l-.11-.09a13.64,13.64,0,0,0-17.27,0l0,0-.18.16a10.41,10.41,0,0,0-.78.71l0,0a6.62,6.62,0,0,1-7.86.15,14.54,14.54,0,0,0-1.24-1.13,13.67,13.67,0,0,0-17.55.32v0a4.69,4.69,0,0,0-.47.43l0,0a6.57,6.57,0,0,1-4.2,1.5V5.85C0,2.62,3.79,0,8.47,0H347.11C351.79,0,355.58,2.62,355.58,5.85Z"/></g></g></svg>